<?xml version="1.0" encoding="UTF-8"?>
<!DOCTYPE svg PUBLIC "-//W3C//DTD SVG 1.1//EN" "http://www.w3.org/Graphics/SVG/1.1/DTD/svg11.dtd">
<svg xmlns="http://www.w3.org/2000/svg" version="1.1" width="16px" height="16px" style="shape-rendering:geometricPrecision; text-rendering:geometricPrecision; image-rendering:optimizeQuality; fill-rule:evenodd; clip-rule:evenodd" xmlns:xlink="http://www.w3.org/1999/xlink">
<g><path style="opacity:0.595" fill="#e5e5e5" d="M 4.5,0.5 C 13.8504,0.365355 16.517,4.53202 12.5,13C 3.95624,16.3224 0.122908,13.4891 1,4.5C 1.68972,2.64977 2.85639,1.31643 4.5,0.5 Z M 6.5,2.5 C 8.33702,2.63945 8.67036,3.30612 7.5,4.5C 6.70245,4.04311 6.36912,3.37644 6.5,2.5 Z M 5.5,6.5 C 6.97782,6.23798 8.31116,6.57131 9.5,7.5C 8.83333,7.83333 8.16667,8.16667 7.5,8.5C 6.28665,8.25284 5.61998,7.58617 5.5,6.5 Z M 6.5,10.5 C 8.33702,10.6395 8.67036,11.3061 7.5,12.5C 6.70245,12.0431 6.36912,11.3764 6.5,10.5 Z"/></g>
</svg>
