<?xml version="1.0" encoding="iso-8859-1"?>
<!-- Generator: Adobe Illustrator 25.2.0, SVG Export Plug-In . SVG Version: 6.00 Build 0)  -->
<svg fill="#FFFFFF" version="1.1" id="Layer_1" xmlns="http://www.w3.org/2000/svg" xmlns:xlink="http://www.w3.org/1999/xlink" x="0px" y="0px"
	 viewBox="0 0 48 48" style="enable-background:new 0 0 48 48;" xml:space="preserve">
<g>
	<path d="M16,34c-0.552,0-1-0.448-1-1v-6c0-0.552,0.448-1,1-1s1,0.448,1,1v6C17,33.552,16.552,34,16,34z"/>
	<path d="M18,32h-2c-0.552,0-1-0.448-1-1s0.448-1,1-1h2c0.551,0,1-0.449,1-1s-0.449-1-1-1h-2c-0.552,0-1-0.448-1-1s0.448-1,1-1h2
		c1.654,0,3,1.346,3,3S19.654,32,18,32z"/>
</g>
<g>
	<path d="M24,34h-1c-0.552,0-1-0.448-1-1v-6c0-0.552,0.448-1,1-1h1c2.206,0,4,1.794,4,4S26.206,34,24,34z M24,28v4
		c1.103,0,2-0.897,2-2S25.103,28,24,28z"/>
</g>
<g>
	<path d="M30,34c-0.552,0-1-0.448-1-1v-6c0-0.552,0.448-1,1-1h3c0.552,0,1,0.448,1,1s-0.448,1-1,1h-2v5C31,33.552,30.552,34,30,34z"
		/>
	<path d="M32.5,31H30c-0.552,0-1-0.448-1-1s0.448-1,1-1h2.5c0.552,0,1,0.448,1,1S33.052,31,32.5,31z"/>
</g>
<path d="M46.561,38.439c-0.586-0.586-1.535-0.586-2.121,0L42,40.879V30.5c0-0.829-0.671-1.5-1.5-1.5S39,29.671,39,30.5v10.379
	l-2.439-2.439c-0.586-0.586-1.535-0.586-2.121,0c-0.586,0.585-0.586,1.536,0,2.121l5,5C39.732,45.854,40.116,46,40.5,46
	s0.768-0.146,1.061-0.439l5-5C47.146,39.975,47.146,39.025,46.561,38.439z"/>
<path d="M28.5,17h10.621L27,4.879V15.5C27,16.327,27.673,17,28.5,17z"/>
<path d="M8.5,23.5h31c0.186,0,0.351,0.065,0.5,0.153V20H28.5c-2.481,0-4.5-2.019-4.5-4.5V4H12.5C10.019,4,8,6.019,8,8.5v15.153
	C8.149,23.565,8.314,23.5,8.5,23.5z"/>
<path d="M33.026,41.975C32.364,41.314,32,40.435,32,39.5s0.364-1.814,1.025-2.475c0.21-0.21,0.447-0.378,0.695-0.525H8.5
	c-0.186,0-0.351-0.065-0.5-0.153V39.5c0,2.481,2.019,4.5,4.5,4.5h22.55L33.026,41.975z"/>
<path d="M33.025,37.025C33.686,36.364,34.565,36,35.5,36c0.528,0,1.037,0.116,1.5,0.336V35H9V25h30v2.351
	C39.456,27.133,39.961,27,40.5,27s1.044,0.133,1.5,0.351V24.5c0-1.378-1.122-2.5-2.5-2.5h-31C7.122,22,6,23.122,6,24.5v11
	C6,36.878,7.122,38,8.5,38h23.85C32.52,37.645,32.739,37.312,33.025,37.025z"/>
</svg>