<?xml version="1.0" encoding="iso-8859-1"?>
<!-- Generator: Adobe Illustrator 25.1.0, SVG Export Plug-In . SVG Version: 6.00 Build 0)  -->
<svg fill="#FFFFFF" version="1.1" id="Layer_1" xmlns="http://www.w3.org/2000/svg" xmlns:xlink="http://www.w3.org/1999/xlink" x="0px" y="0px"
	 viewBox="0 0 48 48" style="enable-background:new 0 0 48 48;" xml:space="preserve">
<path d="M35,24c-6.075,0-11,4.925-11,11s4.925,11,11,11s11-4.925,11-11S41.075,24,35,24z M35,28c1.924,0,3.709,0.804,5,2.128V29
	c0-0.552,0.447-1,1-1s1,0.448,1,1v4c0,0.552-0.448,1-1,1h-4c-0.553,0-1-0.448-1-1s0.447-1,1-1h1.961c-0.925-1.228-2.372-2-3.961-2
	c-2.175,0-4.031,1.397-4.717,3.34c-0.14,0.396-0.514,0.66-0.934,0.66h0c-0.703,0-1.175-0.703-0.937-1.364
	C29.383,29.936,31.97,28,35,28z M35,42c-1.924,0-3.709-0.804-5-2.128V41c0,0.552-0.447,1-1,1s-1-0.448-1-1v-4c0-0.552,0.448-1,1-1h4
	c0.553,0,1,0.448,1,1s-0.447,1-1,1h-1.961c0.925,1.228,2.372,2,3.961,2c2.175,0,4.031-1.397,4.717-3.34
	c0.14-0.396,0.514-0.66,0.934-0.66l0,0c0.703,0,1.175,0.703,0.937,1.364C40.617,40.064,38.03,42,35,42z"/>
<path d="M22,35h-4.509c-0.828,0-1.5-0.672-1.5-1.5c0-0.759,0.564-1.387,1.296-1.486L17.491,32h4.872
	c0.344-1.446,0.925-2.785,1.708-4h-6.58c-0.828,0-1.5-0.685-1.5-1.514c0-0.759,0.564-1.387,1.296-1.486l0.204-0.014h9.229
	C28.971,23.122,31.856,22,35,22c1.771,0,3.46,0.359,5,1.003V20H28.5c-2.481,0-4.5-2.019-4.5-4.5V4H12.5C10.019,4,8,6.019,8,8.5v31
	c0,2.481,2.019,4.5,4.5,4.5h13.141C23.392,41.662,22,38.493,22,35z"/>
<path d="M28.5,17h10.621L27,4.879V15.5C27,16.327,27.673,17,28.5,17z"/>
</svg>