<svg fill="#FFFFFF" xmlns="http://www.w3.org/2000/svg"  viewBox="0 0 48 48" width="16px" height="16px"><path d="M 12.5 4 C 10.032499 4 8 6.0324991 8 8.5 L 8 22.050781 C 6.8602309 22.282931 6 23.292928 6 24.5 L 6 35.5 C 6 36.707072 6.8602309 37.717069 8 37.949219 L 8 39.5 C 8 41.981 10.019 44 12.5 44 L 35.050781 44 L 33.025391 41.974609 C 32.738391 41.687609 32.519609 41.355 32.349609 41 L 12.5 41 C 11.673 41 11 40.327 11 39.5 L 11 38 L 32.349609 38 C 32.519609 37.645 32.739391 37.312391 33.025391 37.025391 C 33.686391 36.364391 34.565 36 35.5 36 C 36.028 36 36.537 36.115938 37 36.335938 L 37 35 L 9 35 L 9 25 L 39 25 L 39 27.351562 C 39.456 27.133563 39.961 27 40.5 27 C 41.039 27 41.544 27.133563 42 27.351562 L 42 24.5 C 42 23.292928 41.139769 22.282931 40 22.050781 L 40 18.5 A 1.50015 1.50015 0 0 0 39.560547 17.439453 L 39.544922 17.423828 L 26.560547 4.4394531 A 1.50015 1.50015 0 0 0 25.5 4 L 12.5 4 z M 12.5 7 L 24 7 L 24 15.5 C 24 17.967501 26.032499 20 28.5 20 L 37 20 L 37 22 L 11 22 L 11 8.5 C 11 7.6535009 11.653501 7 12.5 7 z M 27 9.1210938 L 34.878906 17 L 28.5 17 C 27.653501 17 27 16.346499 27 15.5 L 27 9.1210938 z M 17.292969 26 C 15.477969 26 14 27.794 14 30 C 14 32.206 15.477969 34 17.292969 34 C 18.738969 34 19.603719 33.019453 19.886719 32.439453 C 20.129719 31.943453 19.924734 31.344562 19.427734 31.101562 C 18.931734 30.859562 18.333797 31.064547 18.091797 31.560547 C 18.089797 31.564547 17.851969 32 17.292969 32 C 16.604969 32 16 31.065 16 30 C 16 28.935 16.604969 28 17.292969 28 C 17.816969 28 18.052609 28.374078 18.099609 28.455078 C 18.346609 28.939078 18.938688 29.138437 19.429688 28.898438 C 19.925687 28.656437 20.131672 28.056547 19.888672 27.560547 C 19.605672 26.980547 18.739969 26 17.292969 26 z M 23.625 26 C 22.247 26 21.125 27.122 21.125 28.5 C 21.125 29.878 22.247 31 23.625 31 L 24.5 31 C 24.776 31 25 31.224 25 31.5 C 25 31.776 24.776 32 24.5 32 L 23.408203 32 C 23.066203 32 22.785031 31.745969 22.707031 31.667969 C 22.316031 31.276969 21.683969 31.276969 21.292969 31.667969 C 20.901969 32.058969 20.901969 32.691031 21.292969 33.082031 C 21.568969 33.358031 22.327203 34 23.408203 34 L 24.5 34 C 25.878 34 27 32.878 27 31.5 C 27 30.122 25.878 29 24.5 29 L 23.625 29 C 23.349 29 23.125 28.776 23.125 28.5 C 23.125 28.224 23.349 28 23.625 28 L 24.5 28 C 24.804 28 25.041969 28.208031 25.042969 28.207031 C 25.433969 28.597031 26.066031 28.598031 26.457031 28.207031 C 26.848031 27.816031 26.848031 27.183969 26.457031 26.792969 C 26.376031 26.711969 25.631 26 24.5 26 L 23.625 26 z M 29.005859 26 C 28.875844 25.999312 28.742984 26.022922 28.615234 26.076172 C 28.105234 26.289172 27.864172 26.874766 28.076172 27.384766 L 30.576172 33.384766 C 30.731172 33.756766 31.096 34 31.5 34 C 31.904 34 32.267828 33.756766 32.423828 33.384766 L 34.923828 27.384766 C 35.135828 26.874766 34.894766 26.288172 34.384766 26.076172 C 33.872766 25.863172 33.287172 26.106234 33.076172 26.615234 L 31.5 30.400391 L 29.923828 26.615234 C 29.764828 26.233484 29.395906 26.002063 29.005859 26 z M 40.5 29 C 39.671 29 39 29.671 39 30.5 L 39 40.878906 L 36.560547 38.439453 C 35.974547 37.853453 35.025453 37.853453 34.439453 38.439453 C 33.853453 39.024453 33.853453 39.975547 34.439453 40.560547 L 39.439453 45.560547 C 39.731453 45.853547 40.116 46 40.5 46 C 40.884 46 41.267547 45.853547 41.560547 45.560547 L 46.560547 40.560547 C 47.145547 39.974547 47.145547 39.025453 46.560547 38.439453 C 45.974547 37.853453 45.025453 37.853453 44.439453 38.439453 L 42 40.878906 L 42 30.5 C 42 29.671 41.329 29 40.5 29 z"/></svg>