<?xml version="1.0" encoding="iso-8859-1"?>
<!-- Generator: Adobe Illustrator 25.1.0, SVG Export Plug-In . SVG Version: 6.00 Build 0)  -->
<svg fill="#FFFFFF" version="1.1" id="Layer_1" xmlns="http://www.w3.org/2000/svg" xmlns:xlink="http://www.w3.org/1999/xlink" x="0px" y="0px"
	 viewBox="0 0 48 48" style="enable-background:new 0 0 48 48;" xml:space="preserve">
<path d="M35,24c-6.075,0-11,4.925-11,11c0,6.075,4.925,11,11,11s11-4.925,11-11C46,28.925,41.075,24,35,24z M42,36h-6v6
	c0,0.552-0.448,1-1,1s-1-0.448-1-1v-6h-6c-0.552,0-1-0.448-1-1s0.448-1,1-1h6v-6c0-0.552,0.448-1,1-1s1,0.448,1,1v6h6
	c0.552,0,1,0.448,1,1S42.552,36,42,36z"/>
<g>
	<path d="M28.5,20c-2.485,0-4.5-2.015-4.5-4.5V4H12.5C10.015,4,8,6.015,8,8.5v27.394l5.78-5.755c1.592-1.523,4.083-1.523,5.673,0
		l2.728,2.685C23.217,26.68,28.562,22,35,22c1.772,0,3.461,0.355,5,0.997V20H28.5z M21.5,27c-1.381,0-2.5-1.119-2.5-2.5
		c0-1.381,1.119-2.5,2.5-2.5s2.5,1.119,2.5,2.5C24,25.881,22.881,27,21.5,27z"/>
	<path d="M17.377,32.305c-0.427-0.409-1.095-0.408-1.521,0l-7.82,7.761C8.314,42.284,10.207,44,12.5,44h13.12
		c-1.811-1.886-3.057-4.318-3.47-7.024L17.377,32.305z"/>
</g>
<path d="M28.5,17h10.621L27,4.879V15.5C27,16.327,27.673,17,28.5,17z"/>
</svg>