<?xml version="1.0" encoding="iso-8859-1"?>
<!-- Generator: Adobe Illustrator 25.2.0, SVG Export Plug-In . SVG Version: 6.00 Build 0)  -->
<svg fill="#FFFFFF" version="1.1" id="Layer_1" xmlns="http://www.w3.org/2000/svg" xmlns:xlink="http://www.w3.org/1999/xlink" x="0px" y="0px"
	 viewBox="0 0 48 48" style="enable-background:new 0 0 48 48;" xml:space="preserve">
<path style="fill:none;stroke:#000000;stroke-width:3;stroke-linecap:round;stroke-linejoin:round;stroke-miterlimit:10;" d="
	M26.5,44.5c0,0,2-2.681,2-6.5c0-0.796,0-1.5,0-1.5c0-2.209,1.791-4,4-4h7c2.209,0,4,1.791,4,4v8h-11"/>
<circle cx="36" cy="25" r="3"/>
<path d="M38,26h-4c0,0,0,5-2,5c0,2,4,1,4,1s4,1,4-1C38,31,38,26,38,26z"/>
<path d="M40,33h-8c-2.209,0-4,1.791-4,4l0,0h16l0,0C44,34.791,42.209,33,40,33z"/>
<line style="fill:none;stroke:#000000;stroke-width:3;stroke-linecap:round;stroke-linejoin:round;stroke-miterlimit:10;" x1="38.5" y1="40.5" x2="38.5" y2="44.5"/>
<path d="M28.5,17h10.621L27,4.879V15.5C27,16.327,27.673,17,28.5,17z"/>
<g>
	<path d="M23.685,42.42C23.684,42.421,25,40.521,25,38v-1.5c0-3.206,2.086-6.02,5-7.064L31.536,29
		c0.095-0.229,0.216-0.621,0.312-1.219C31.296,26.965,31,26.007,31,25c0-2.757,2.243-5,5-5h-7.5c-2.481,0-4.5-2.019-4.5-4.5V4H12.5
		C10.019,4,8,6.019,8,8.5v31c0,2.481,2.019,4.5,4.5,4.5h10.554C23.133,43.445,23.33,42.901,23.685,42.42z"/>
</g>
</svg>