<?xml version="1.0" encoding="iso-8859-1"?>
<!-- Generator: Adobe Illustrator 24.3.0, SVG Export Plug-In . SVG Version: 6.00 Build 0)  -->
<svg fill="#FFFFFF" version="1.1" id="Layer_1_1_" xmlns="http://www.w3.org/2000/svg" xmlns:xlink="http://www.w3.org/1999/xlink" x="0px" y="0px"
	 viewBox="0 0 48 48" style="enable-background:new 0 0 48 48;" xml:space="preserve">
<path d="M28.5,17h10.621L27,4.879V15.5C27,16.327,27.673,17,28.5,17z"/>
<path d="M28.5,20c-2.485,0-4.5-2.015-4.5-4.5V4H12.5C10.015,4,8,6.015,8,8.5v31c0,2.485,2.015,4.5,4.5,4.5h23
	c2.485,0,4.5-2.015,4.5-4.5V20H28.5z M32.135,28.986l-4.148,4.148C27.916,34.175,27.058,35,26,35s-1.916-0.825-1.986-1.865
	L21,30.121l-3.014,3.014C17.916,34.175,17.058,35,16,35c-1.105,0-2-0.896-2-2c0-1.058,0.825-1.916,1.865-1.986l3.148-3.148
	C19.084,26.825,19.942,26,21,26s1.916,0.825,1.986,1.865L26,30.879l4.014-4.014C30.084,25.825,30.942,25,32,25c1.105,0,2,0.895,2,2
	C34,28.058,33.175,28.916,32.135,28.986z"/>
</svg>