<?xml version="1.0" encoding="iso-8859-1"?>
<!-- Generator: Adobe Illustrator 25.1.0, SVG Export Plug-In . SVG Version: 6.00 Build 0)  -->
<svg fill="#FFFFFF" version="1.1" id="Layer_1" xmlns="http://www.w3.org/2000/svg" xmlns:xlink="http://www.w3.org/1999/xlink" x="0px" y="0px"
	 viewBox="0 0 48 48" style="enable-background:new 0 0 48 48;" xml:space="preserve">
<path d="M44.8,38h-5.6c-0.663,0-1.2,0.537-1.2,1.2v5.6c0,0.663,0.537,1.2,1.2,1.2h5.6c0.663,0,1.2-0.537,1.2-1.2v-5.6
	C46,38.537,45.463,38,44.8,38z"/>
<path d="M34.8,38h-5.6c-0.663,0-1.2,0.537-1.2,1.2v5.6c0,0.663,0.537,1.2,1.2,1.2h5.6c0.663,0,1.2-0.537,1.2-1.2v-5.6
	C36,38.537,35.463,38,34.8,38z"/>
<path d="M39.8,28h-5.6c-0.663,0-1.2,0.537-1.2,1.2v5.6c0,0.663,0.537,1.2,1.2,1.2h5.6c0.663,0,1.2-0.537,1.2-1.2v-5.6
	C41,28.537,40.463,28,39.8,28z"/>
<path d="M28.5,17h10.621L27,4.879V15.5C27,16.327,27.673,17,28.5,17z"/>
<g>
	<path d="M26,39.2c0-1.765,1.436-3.2,3.2-3.2h2.034C31.083,35.629,31,35.224,31,34.8v-5.6c0-1.765,1.436-3.2,3.2-3.2h5.6
		c0.067,0,0.134,0.002,0.2,0.006V20H28.5c-2.481,0-4.5-2.019-4.5-4.5V4H12.5C10.019,4,8,6.019,8,8.5v31c0,2.481,2.019,4.5,4.5,4.5
		H26V39.2z"/>
</g>
</svg>