<?xml version="1.0" encoding="iso-8859-1"?>
<!-- Generator: Adobe Illustrator 25.0.1, SVG Export Plug-In . SVG Version: 6.00 Build 0)  -->
<svg fill="#FFFFFF" version="1.1" id="Layer_1" xmlns="http://www.w3.org/2000/svg" xmlns:xlink="http://www.w3.org/1999/xlink" x="0px" y="0px"
	 viewBox="0 0 48 48" style="enable-background:new 0 0 48 48;" xml:space="preserve">
<polygon points="20,4.879 20,12 27.121,12 "/>
<polygon points="35,13.879 35,21 42.121,21 "/>
<path d="M20,15c-1.654,0-3-1.346-3-3V4h-6.5C7.467,4,5,6.467,5,9.5v18c0,3.033,2.467,5.5,5.5,5.5h12c3.033,0,5.5-2.467,5.5-5.5V15
	H20z M17.325,25.325l-2.333,2.333C14.769,27.882,14.47,28,14.166,28c-0.15,0-0.302-0.029-0.446-0.089
	c-0.436-0.18-0.72-0.606-0.72-1.078V26H8.5C7.671,26,7,25.329,7,24.5S7.671,23,8.5,23H13v-0.833c0-0.472,0.284-0.897,0.72-1.078
	c0.437-0.182,0.938-0.081,1.271,0.253l2.333,2.333C17.78,24.131,17.78,24.87,17.325,25.325z"/>
<path d="M35,24c-1.654,0-3-1.346-3-3v-8h-2v14.5c0,4.136-3.364,7.5-7.5,7.5H20v1.5c0,3.033,2.467,5.5,5.5,5.5h12
	c3.033,0,5.5-2.467,5.5-5.5V24H35z M39.5,35H35v0.833c0,0.472-0.284,0.897-0.72,1.078C34.136,36.971,33.984,37,33.834,37
	c-0.304,0-0.602-0.118-0.825-0.342l-2.333-2.333c-0.456-0.455-0.456-1.194,0-1.65l2.333-2.333c0.333-0.333,0.834-0.434,1.271-0.253
	c0.436,0.18,0.72,0.606,0.72,1.078V32h4.5c0.829,0,1.5,0.671,1.5,1.5S40.329,35,39.5,35z"/>
</svg>