<?xml version="1.0" encoding="iso-8859-1"?>
<!-- Generator: Adobe Illustrator 22.1.0, SVG Export Plug-In . SVG Version: 6.00 Build 0)  -->
<svg fill="#FFFFFF" version="1.1" id="Layer_1_1_" xmlns="http://www.w3.org/2000/svg" xmlns:xlink="http://www.w3.org/1999/xlink" x="0px" y="0px"
	 viewBox="0 0 48 48" style="enable-background:new 0 0 48 48;" xml:space="preserve">
<path d="M35,24c-6.065,0-11,4.935-11,11s4.935,11,11,11s11-4.935,11-11S41.065,24,35,24z M35,27c1.665,0,3.211,0.512,4.493,1.386
	L28.386,39.493C27.512,38.211,27,36.665,27,35C27,30.589,30.589,27,35,27z M35,43c-1.665,0-3.211-0.512-4.493-1.386l11.107-11.107
	C42.488,31.789,43,33.335,43,35C43,39.411,39.411,43,35,43z"/>
<path d="M22,35c0-7.168,5.832-13,13-13c1.771,0,3.46,0.359,5,1.003V20H28.5c-2.481,0-4.5-2.019-4.5-4.5V4H12.5
	C10.019,4,8,6.019,8,8.5v31c0,2.481,2.019,4.5,4.5,4.5h13.141C23.392,41.662,22,38.493,22,35z"/>
<path d="M28.5,17h10.621L27,4.879V15.5C27,16.327,27.673,17,28.5,17z"/>
</svg>