<svg fill="#FFFFFF" xmlns="http://www.w3.org/2000/svg"  viewBox="0 0 48 48" width="16px" height="16px"><path d="M 40.5 6 C 40.11625 6 39.732453 6.1464531 39.439453 6.4394531 L 21.462891 24.417969 L 20 28 L 23.582031 26.537109 L 41.560547 8.5605469 C 42.145547 7.9745469 42.145547 7.0254531 41.560547 6.4394531 C 41.267547 6.1464531 40.88375 6 40.5 6 z M 12.5 7 C 9.4802259 7 7 9.4802259 7 12.5 L 7 35.5 C 7 38.519774 9.4802259 41 12.5 41 L 35.5 41 C 38.519774 41 41 38.519774 41 35.5 L 41 18.5 A 1.50015 1.50015 0 1 0 38 18.5 L 38 35.5 C 38 36.898226 36.898226 38 35.5 38 L 12.5 38 C 11.101774 38 10 36.898226 10 35.5 L 10 12.5 C 10 11.101774 11.101774 10 12.5 10 L 29.5 10 A 1.50015 1.50015 0 1 0 29.5 7 L 12.5 7 z"/></svg>