<?xml version="1.0" encoding="iso-8859-1"?>
<!-- Generator: Adobe Illustrator 25.1.0, SVG Export Plug-In . SVG Version: 6.00 Build 0)  -->
<svg fill="#FFFFFF" version="1.1" id="Layer_1" xmlns="http://www.w3.org/2000/svg" xmlns:xlink="http://www.w3.org/1999/xlink" x="0px" y="0px"
	 viewBox="0 0 48 48" style="enable-background:new 0 0 48 48;" xml:space="preserve">
<path d="M35.5,4h-23C10.019,4,8,6.019,8,8.5v31c0,2.481,2.019,4.5,4.5,4.5h23c2.481,0,4.5-2.019,4.5-4.5v-31
	C40,6.019,37.981,4,35.5,4z M16.5,12h7c0.829,0,1.5,0.671,1.5,1.5S24.329,15,23.5,15h-7c-0.829,0-1.5-0.671-1.5-1.5
	S15.671,12,16.5,12z M27.5,36h-11c-0.829,0-1.5-0.671-1.5-1.5s0.671-1.5,1.5-1.5h11c0.829,0,1.5,0.671,1.5,1.5S28.329,36,27.5,36z
	 M31.5,30h-15c-0.829,0-1.5-0.671-1.5-1.5s0.671-1.5,1.5-1.5h15c0.829,0,1.5,0.671,1.5,1.5S32.329,30,31.5,30z M31.5,24h-15
	c-0.829,0-1.5-0.671-1.5-1.5s0.671-1.5,1.5-1.5h15c0.829,0,1.5,0.671,1.5,1.5S32.329,24,31.5,24z"/>
</svg>