<?xml version="1.0" encoding="iso-8859-1"?>
<!-- Generator: Adobe Illustrator 25.2.0, SVG Export Plug-In . SVG Version: 6.00 Build 0)  -->
<svg fill="#FFFFFF" version="1.1" id="Layer_1" xmlns="http://www.w3.org/2000/svg" xmlns:xlink="http://www.w3.org/1999/xlink" x="0px" y="0px"
	 viewBox="0 0 48 48" style="enable-background:new 0 0 48 48;" xml:space="preserve">
<path d="M44.5,26h-16c-0.552,0-1,0.448-1,1v1.682c0,1.17,0.536,2.275,1.455,2.999L34.5,36v9.264c0,0.615,0.711,0.958,1.192,0.575
	l2.43-1.933c0.239-0.19,0.377-0.478,0.377-0.783V36l5.545-4.319c0.919-0.724,1.455-1.83,1.455-2.999V27
	C45.5,26.448,45.052,26,44.5,26z"/>
<g>
	<path d="M32.5,36.977l-4.773-3.718c-1.418-1.117-2.227-2.783-2.227-4.577V27c0-1.654,1.346-3,3-3h11v-4H28
		c-2.481,0-4.5-2.019-4.5-4.5V4H12C9.519,4,7.5,6.019,7.5,8.5v31c0,2.481,2.019,4.5,4.5,4.5h20.5V36.977z"/>
</g>
<path d="M28,17h10.621L26.5,4.879V15.5C26.5,16.327,27.173,17,28,17z"/>
</svg>