<?xml version="1.0" encoding="iso-8859-1"?>
<!-- Generator: Adobe Illustrator 25.1.0, SVG Export Plug-In . SVG Version: 6.00 Build 0)  -->
<svg fill="#FFFFFF" version="1.1" id="Layer_1" xmlns="http://www.w3.org/2000/svg" xmlns:xlink="http://www.w3.org/1999/xlink" x="0px" y="0px"
	 viewBox="0 0 48 48" style="enable-background:new 0 0 48 48;" xml:space="preserve">
<path d="M45.105,32.118L46,31.257c-0.401-1.147-0.981-2.205-1.706-3.139l-1.204,0.356c-2.195,0.649-4.485-0.673-5.022-2.898
	l-0.345-1.432C37.162,24.049,36.587,24,36,24c-0.587,0-1.162,0.049-1.723,0.144l-0.345,1.432c-0.537,2.225-2.827,3.547-5.022,2.898
	l-1.204-0.356c-0.724,0.933-1.305,1.992-1.706,3.139l0.895,0.861c1.635,1.574,1.635,4.191,0,5.765L26,38.743
	c0.401,1.147,0.981,2.205,1.706,3.139l1.204-0.356c2.195-0.649,4.485,0.673,5.022,2.898l0.345,1.432C34.838,45.951,35.414,46,36,46
	c0.587,0,1.162-0.049,1.723-0.144l0.345-1.432c0.537-2.225,2.827-3.547,5.022-2.898l1.204,0.356
	c0.724-0.933,1.305-1.992,1.706-3.139l-0.895-0.861C43.47,36.309,43.47,33.691,45.105,32.118z M36,38c-1.657,0-3-1.343-3-3
	c0-1.657,1.343-3,3-3c1.657,0,3,1.343,3,3C39,36.657,37.657,38,36,38z"/>
<path d="M28.5,17h10.621L27,4.879V15.5C27,16.327,27.673,17,28.5,17z"/>
<path d="M23,35c0-7.179,5.82-13,13-13c1.395,0,2.739,0.22,3.999,0.627V20H28.5c-2.481,0-4.5-2.019-4.5-4.5V4H12.5
	C10.019,4,8,6.019,8,8.5v31c0,2.481,2.019,4.5,4.5,4.5h14.12C24.378,41.664,23,38.493,23,35z"/>
</svg>