<?xml version="1.0" encoding="iso-8859-1"?>
<!-- Generator: Adobe Illustrator 25.2.0, SVG Export Plug-In . SVG Version: 6.00 Build 0)  -->
<svg fill="#FFFFFF" version="1.1" id="Layer_1" xmlns="http://www.w3.org/2000/svg" xmlns:xlink="http://www.w3.org/1999/xlink" x="0px" y="0px"
	 viewBox="0 0 48 48" style="enable-background:new 0 0 48 48;" xml:space="preserve">
<path d="M28.5,17h10.621L27,4.879V15.5C27,16.327,27.673,17,28.5,17z"/>
<path d="M28.5,20c-2.481,0-4.5-2.019-4.5-4.5V4H12.5C10.019,4,8,6.019,8,8.5v31c0,2.481,2.019,4.5,4.5,4.5h23
	c2.481,0,4.5-2.019,4.5-4.5V20H28.5z M30.5,39h-13c-0.828,0-1.5-0.671-1.5-1.5s0.672-1.5,1.5-1.5H24
	c-0.384,0-0.768-0.146-1.061-0.439l-4-4c-0.586-0.585-0.586-1.536,0-2.121c0.586-0.586,1.535-0.586,2.121,0l1.439,1.439V24.5
	c0-0.829,0.672-1.5,1.5-1.5s1.5,0.671,1.5,1.5v6.379l1.439-1.439c0.586-0.586,1.535-0.586,2.121,0c0.586,0.585,0.586,1.536,0,2.121
	l-4,4C24.768,35.854,24.384,36,24,36h6.5c0.828,0,1.5,0.671,1.5,1.5S31.328,39,30.5,39z"/>
</svg>