<?xml version="1.0" encoding="iso-8859-1"?>
<!-- Generator: Adobe Illustrator 24.2.3, SVG Export Plug-In . SVG Version: 6.00 Build 0)  -->
<svg fill="#FFFFFF" version="1.1" id="Layer_1" xmlns="http://www.w3.org/2000/svg" xmlns:xlink="http://www.w3.org/1999/xlink" x="0px" y="0px"
	 viewBox="0 0 48 48" style="enable-background:new 0 0 48 48;" xml:space="preserve">
<path d="M39,24c-3.866,0-7,3.134-7,7c0,0.493,0.052,0.973,0.149,1.437l-7.856,7.856C24.105,40.48,24,40.735,24,41v4
	c0,0.552,0.447,1,1,1h4c0.553,0,1-0.448,1-1v-2h2c0.553,0,1-0.448,1-1v-2h2c0.553,0,1-0.448,1-1v-1.683C36.91,37.75,37.925,38,39,38
	c3.866,0,7-3.134,7-7C46,27.134,42.866,24,39,24z M40,32c-1.105,0-2-0.895-2-2c0-1.105,0.895-2,2-2c1.105,0,2,0.895,2,2
	C42,31.105,41.105,32,40,32z"/>
<g>
	<path d="M22,41c0-0.748,0.282-1.449,0.779-2H12.5c-1.378,0-2.5-1.122-2.5-2.5V36h15.758l4.272-4.272C30.01,31.485,30,31.242,30,31
		c0-1.053,0.191-2.06,0.525-3H12.5c-1.378,0-2.5-1.122-2.5-2.5V25h22.311c1.649-1.836,4.033-3,6.689-3
		c0.683,0,1.346,0.083,1.986,0.228c-0.073-1.467-0.718-2.783-1.722-3.728C40.33,17.496,41,16.077,41,14.5v-3
		C41,8.467,38.533,6,35.5,6h-23C9.467,6,7,8.467,7,11.5v3c0,1.577,0.67,2.996,1.737,4C7.67,19.504,7,20.923,7,22.5v3
		c0,1.577,0.67,2.996,1.737,4C7.67,30.504,7,31.923,7,33.5v3c0,3.033,2.467,5.5,5.5,5.5H22V41z M10,14h28v0.5
		c0,1.378-1.122,2.5-2.5,2.5h-23c-1.378,0-2.5-1.122-2.5-2.5V14z"/>
</g>
</svg>