<?xml version="1.0" encoding="iso-8859-1"?>
<!-- Generator: Adobe Illustrator 25.1.0, SVG Export Plug-In . SVG Version: 6.00 Build 0)  -->
<svg fill="#FFFFFF" version="1.1" id="Layer_1" xmlns="http://www.w3.org/2000/svg" xmlns:xlink="http://www.w3.org/1999/xlink" x="0px" y="0px"
	 viewBox="0 0 48 48" style="enable-background:new 0 0 48 48;" xml:space="preserve">
<path d="M28.5,20c-2.485,0-4.5-2.015-4.5-4.5V4H12.5C10.015,4,8,6.015,8,8.5v31c0,2.485,2.015,4.5,4.5,4.5h23
	c2.485,0,4.5-2.015,4.5-4.5V20H28.5z M19.5,24.061c1.381,0,2.5,1.119,2.5,2.5c0,1.381-1.119,2.5-2.5,2.5s-2.5-1.119-2.5-2.5
	C17,25.18,18.119,24.061,19.5,24.061z M30.646,34.741C29.037,36.813,26.615,38,24,38s-5.037-1.188-6.646-3.259
	c-0.508-0.654-0.39-1.597,0.265-2.104c0.654-0.509,1.597-0.391,2.104,0.265C20.76,34.235,22.318,35,24,35s3.24-0.765,4.276-2.099
	c0.509-0.655,1.45-0.773,2.104-0.265C31.035,33.145,31.153,34.087,30.646,34.741z M28.5,29.061c-1.381,0-2.5-1.119-2.5-2.5
	c0-1.381,1.119-2.5,2.5-2.5s2.5,1.119,2.5,2.5C31,27.942,29.881,29.061,28.5,29.061z"/>
<path d="M28.5,17h10.621L27,4.879V15.5C27,16.327,27.673,17,28.5,17z"/>
</svg>