<?xml version="1.0" encoding="iso-8859-1"?>
<!-- Generator: Adobe Illustrator 25.1.0, SVG Export Plug-In . SVG Version: 6.00 Build 0)  -->
<svg fill="#FFFFFF" version="1.1" id="Layer_1" xmlns="http://www.w3.org/2000/svg" xmlns:xlink="http://www.w3.org/1999/xlink" x="0px" y="0px"
	 viewBox="0 0 48 48" style="enable-background:new 0 0 48 48;" xml:space="preserve">
<g>
	<path d="M34.439,36.561c0.586,0.586,1.535,0.586,2.121,0L39,34.121V44.5c0,0.829,0.671,1.5,1.5,1.5s1.5-0.671,1.5-1.5V34.121
		l2.439,2.439c0.586,0.586,1.535,0.586,2.121,0c0.586-0.585,0.586-1.536,0-2.121l-5-5C41.268,29.146,40.884,29,40.5,29
		s-0.768,0.146-1.061,0.439l-5,5C33.854,35.025,33.854,35.975,34.439,36.561z"/>
</g>
<path d="M28.5,17h10.621L27,4.879V15.5C27,16.327,27.673,17,28.5,17z"/>
<path d="M37,38.662c-1.3,0.615-2.901,0.386-3.975-0.687c0,0,0,0,0,0v0C32.364,37.314,32,36.435,32,35.5s0.364-1.814,1.025-2.476
	l5-4.999c0.539-0.539,1.242-0.858,1.975-0.958V20H28.5c-2.485,0-4.5-2.015-4.5-4.5V4H12.5C10.015,4,8,6.015,8,8.5v31
	c0,2.485,2.015,4.5,4.5,4.5h23c0.526,0,1.031-0.091,1.5-0.256V38.662z"/>
</svg>