<?xml version="1.0" encoding="iso-8859-1"?>
<!-- Generator: Adobe Illustrator 22.1.0, SVG Export Plug-In . SVG Version: 6.00 Build 0)  -->
<svg fill="#FFFFFF" version="1.1" id="Layer_1_1_" xmlns="http://www.w3.org/2000/svg" xmlns:xlink="http://www.w3.org/1999/xlink" x="0px" y="0px"
	 viewBox="0 0 48 48" style="enable-background:new 0 0 48 48;" xml:space="preserve">
<path d="M28.5,20c-2.481,0-4.5-2.019-4.5-4.5V4H12.5C10.019,4,8,6.019,8,8.5v31c0,2.481,2.019,4.5,4.5,4.5h23
	c2.481,0,4.5-2.019,4.5-4.5V20H28.5z M24,39c-3.309,0-6-2.691-6-6c0-4.831,5.045-10.437,5.26-10.673
	c0.379-0.416,1.101-0.416,1.479,0C24.955,22.563,30,28.169,30,33C30,36.309,27.309,39,24,39z"/>
<path d="M28.5,17h10.621L27,4.879V15.5C27,16.327,27.673,17,28.5,17z"/>
<path d="M24.707,29.293c-0.391-0.391-1.023-0.391-1.414,0C23.058,29.527,21,31.653,21,34c0,1.654,1.346,3,3,3s3-1.346,3-3
	C27,31.653,24.941,29.527,24.707,29.293z"/>
</svg>