<?xml version="1.0" encoding="iso-8859-1"?>
<!-- Generator: Adobe Illustrator 22.1.0, SVG Export Plug-In . SVG Version: 6.00 Build 0)  -->
<svg fill="#FFFFFF" version="1.1" id="Layer_1_1_" xmlns="http://www.w3.org/2000/svg" xmlns:xlink="http://www.w3.org/1999/xlink" x="0px" y="0px"
	 viewBox="0 0 48 48" style="enable-background:new 0 0 48 48;" xml:space="preserve">
<path d="M34.439,36.561c0.586,0.586,1.535,0.586,2.121,0l2.44-2.44V44.5c0,0.829,0.671,1.5,1.5,1.5s1.5-0.671,1.5-1.5V34.121
	l2.439,2.439c0.586,0.586,1.535,0.586,2.121,0c0.586-0.585,0.586-1.536,0-2.121l-5-5C41.268,29.146,40.884,29,40.5,29
	s-0.768,0.146-1.061,0.439l-5,5C33.854,35.025,33.854,35.975,34.439,36.561z"/>
<path d="M28.5,17h10.621L27,4.879V15.5C27,16.327,27.673,17,28.5,17z"/>
<path d="M8.5,23.5h31c0.186,0,0.351,0.065,0.5,0.153V20H28.5c-2.481,0-4.5-2.019-4.5-4.5V4H12.5C10.019,4,8,6.019,8,8.5v15.153
	C8.149,23.565,8.314,23.5,8.5,23.5z"/>
<path d="M37,38.664C36.537,38.884,36.028,39,35.5,39c-0.935,0-1.814-0.364-2.474-1.025c-0.417-0.417-0.7-0.926-0.864-1.475H8.5
	c-0.186,0-0.351-0.065-0.5-0.153V39.5c0,2.481,2.019,4.5,4.5,4.5h23c0.529,0,1.029-0.108,1.5-0.276V38.664z"/>
<path d="M33.026,37.975C32.364,37.314,32,36.435,32,35.5c0-0.17,0.025-0.335,0.049-0.5H9V25h30v2.35c0.464-0.222,0.97-0.35,1.5-0.35
	s1.036,0.129,1.5,0.35V24.5c0-1.379-1.121-2.5-2.5-2.5h-31C7.121,22,6,23.121,6,24.5v11C6,36.879,7.121,38,8.5,38h24.556
	C33.046,37.991,33.035,37.985,33.026,37.975z"/>
<path d="M17.292,34C15.477,34,14,32.206,14,30s1.477-4,3.292-4c1.447,0,2.313,0.981,2.596,1.561
	c0.243,0.496,0.037,1.095-0.459,1.337c-0.491,0.24-1.082,0.041-1.329-0.443C18.053,28.374,17.816,28,17.292,28
	C16.604,28,16,28.935,16,30s0.604,2,1.292,2c0.559,0,0.797-0.435,0.799-0.439c0.242-0.496,0.841-0.701,1.337-0.459
	c0.497,0.243,0.702,0.841,0.459,1.337C19.604,33.019,18.738,34,17.292,34z"/>
<path d="M24.5,34h-1.092c-1.081,0-1.839-0.642-2.115-0.918c-0.391-0.391-0.391-1.023,0-1.414s1.023-0.391,1.414,0
	C22.785,31.746,23.066,32,23.408,32H24.5c0.276,0,0.5-0.224,0.5-0.5S24.776,31,24.5,31h-0.875c-1.378,0-2.5-1.122-2.5-2.5
	s1.122-2.5,2.5-2.5H24.5c1.131,0,1.876,0.712,1.957,0.793c0.391,0.391,0.391,1.023,0,1.414s-1.023,0.39-1.414,0l0,0
	C25.042,28.208,24.804,28,24.5,28h-0.875c-0.276,0-0.5,0.224-0.5,0.5s0.224,0.5,0.5,0.5H24.5c1.378,0,2.5,1.122,2.5,2.5
	C27,32.878,25.878,34,24.5,34z"/>
<path d="M31.5,34c-0.404,0-0.768-0.243-0.923-0.615l-2.5-6c-0.212-0.51,0.028-1.095,0.538-1.308
	c0.511-0.213,1.096,0.029,1.308,0.538L31.5,30.4l1.577-3.785c0.211-0.509,0.796-0.751,1.308-0.538
	c0.51,0.212,0.75,0.798,0.538,1.308l-2.5,6C32.267,33.757,31.904,34,31.5,34z"/>
</svg>