<svg fill="#FFFFFF" xmlns="http://www.w3.org/2000/svg"  viewBox="0 0 48 48" width="96px" height="96px"><path d="M 5.5 6 C 4.2603614 6 3.1287512 6.5118738 2.3203125 7.3203125 C 1.5118738 8.1287512 1 9.2603614 1 10.5 C 1 12.967229 3.0327711 15 5.5 15 L 9 15 L 9 36.5 C 9 39.533 11.468 42 14.5 42 L 24.056641 42 C 23.462641 41.073 22.979766 40.068 22.634766 39 L 19.869141 39 C 19.22272 34.969821 16.030179 31.77728 12 31.130859 L 12 9 L 22.271484 9 A 2 2 0 0 0 24 12 A 2 2 0 0 0 25.732422 9 L 36 9 L 36 22.050781 C 37.039 22.129781 38.044 22.324766 39 22.634766 L 39 15 L 42.5 15 C 43.739639 15 44.871249 14.488126 45.679688 13.679688 C 46.488126 12.871249 47 11.739639 47 10.5 C 47 8.0327711 44.967229 6 42.5 6 L 5.5 6 z M 5.5 9 L 9 9 L 9 12 L 5.5 12 C 4.6472289 12 4 11.352771 4 10.5 C 4 10.079639 4.1698449 9.7129676 4.4414062 9.4414062 C 4.7129676 9.1698449 5.0796386 9 5.5 9 z M 39 9 L 42.5 9 C 43.352771 9 44 9.6472289 44 10.5 C 44 10.920361 43.830155 11.287032 43.558594 11.558594 C 43.287032 11.830155 42.920361 12 42.5 12 L 39 12 L 39 9 z M 26.75 16 C 24.407 16 22.5 17.906 22.5 20.25 L 22.5 21.480469 C 22.5 22.169469 21.939 22.730469 21.25 22.730469 C 20.584 22.730469 20 22.101766 20 21.384766 L 20 20.537109 C 20 19.779109 20.322875 19.515797 20.671875 19.341797 C 21.413875 18.970797 21.711797 18.070125 21.341797 17.328125 C 20.970797 16.587125 20.070125 16.28625 19.328125 16.65625 C 18.139125 17.25125 17.381281 18.243047 17.113281 19.498047 L 16.5 19.498047 C 15.671 19.498047 15 20.170047 15 20.998047 C 15 21.826047 15.671 22.498047 16.5 22.498047 L 17.167969 22.498047 C 17.665969 24.331047 19.324 25.728516 21.25 25.728516 C 23.593 25.728516 25.5 23.822516 25.5 21.478516 L 25.5 20.248047 C 25.5 19.559047 26.061 18.998047 26.75 18.998047 C 27.439 18.998047 28 19.56 28 20.25 L 28 21.960938 C 28 22.780938 27.440125 23.103203 27.328125 23.158203 C 26.620125 23.512203 26.323141 24.347359 26.619141 25.068359 C 28.209141 23.725359 30.123469 22.760734 32.230469 22.302734 C 32.687469 22.045734 33 21.562 33 21 C 33 20.172 32.329 19.5 31.5 19.5 L 30.923828 19.5 C 30.567828 17.514 28.837 16 26.75 16 z M 35 24 C 28.925 24 24 28.925 24 35 C 24 41.075 28.925 46 35 46 C 41.075 46 46 41.075 46 35 C 46 28.925 41.075 24 35 24 z M 35 27 C 35.552 27 36 27.448 36 28 L 36 34 L 42 34 C 42.552 34 43 34.448 43 35 C 43 35.552 42.552 36 42 36 L 36 36 L 36 42 C 36 42.552 35.552 43 35 43 C 34.448 43 34 42.552 34 42 L 34 36 L 28 36 C 27.448 36 27 35.552 27 35 C 27 34.448 27.448 34 28 34 L 34 34 L 34 28 C 34 27.448 34.448 27 35 27 z M 12 34.177734 C 14.393455 34.737784 16.262216 36.606545 16.822266 39 L 14.5 39 C 13.121 39 12 37.878 12 36.5 L 12 34.177734 z"/></svg>