<?xml version="1.0" encoding="iso-8859-1"?>
<!-- Generator: Adobe Illustrator 22.1.0, SVG Export Plug-In . SVG Version: 6.00 Build 0)  -->
<svg fill="#FFFFFF" version="1.1" id="Layer_1" xmlns="http://www.w3.org/2000/svg" xmlns:xlink="http://www.w3.org/1999/xlink" x="0px" y="0px"
	 viewBox="0 0 48 48" style="enable-background:new 0 0 48 48;" xml:space="preserve">
<path d="M28.5,17h10.621L27,4.879V15.5C27,16.327,27.673,17,28.5,17z"/>
<path d="M28.5,20c-2.481,0-4.5-2.019-4.5-4.5V4H12.5C10.019,4,8,6.019,8,8.5v31c0,2.481,2.019,4.5,4.5,4.5h23
	c2.481,0,4.5-2.019,4.5-4.5V20H28.5z M26.691,34.986L26.488,35h-8.996c-0.828,0-1.5-0.672-1.5-1.5c0-0.759,0.564-1.387,1.296-1.486
	L17.491,32h8.996c0.828,0,1.5,0.671,1.5,1.5C27.988,34.259,27.423,34.887,26.691,34.986z M30.5,28c-0.684,0-12.315,0-13,0
	c-0.828,0-1.5-0.672-1.5-1.5s0.672-1.5,1.5-1.5c0.685,0,12.316,0,13,0c0.828,0,1.5,0.672,1.5,1.5S31.328,28,30.5,28z"/>
</svg>