<?xml version="1.0" encoding="iso-8859-1"?>
<!-- Generator: Adobe Illustrator 22.1.0, SVG Export Plug-In . SVG Version: 6.00 Build 0)  -->
<svg fill="#FFFFFF" version="1.1" id="Layer_1_1_" xmlns="http://www.w3.org/2000/svg" xmlns:xlink="http://www.w3.org/1999/xlink" x="0px" y="0px"
	 viewBox="0 0 48 48" style="enable-background:new 0 0 48 48;" xml:space="preserve">
<path d="M28.5,17h10.621L27,4.879V15.5C27,16.327,27.673,17,28.5,17z"/>
<path d="M28.5,20c-2.481,0-4.5-2.019-4.5-4.5V4H12.5C10.019,4,8,6.019,8,8.5v31c0,2.481,2.019,4.5,4.5,4.5h23
	c2.481,0,4.5-2.019,4.5-4.5V20H28.5z M30.982,29.359l-3.125,2.367l1.194,3.83l0.047,0.198c0.182,1.109-1.047,1.961-1.973,1.26
	L24,34.647l-3.125,2.367l-0.166,0.108c-0.956,0.523-2.113-0.432-1.759-1.566l1.193-3.83l-3.124-2.367l-0.158-0.139
	C16.1,28.432,16.614,27,17.754,27l3.863-0.005l1.193-3.825l0.085-0.211c0.489-0.986,1.944-0.915,2.296,0.211L26.384,27h3.863
	l0.207,0.016C31.513,27.187,31.904,28.661,30.982,29.359z"/>
</svg>