<?xml version="1.0" encoding="iso-8859-1"?>
<!-- Generator: Adobe Illustrator 22.1.0, SVG Export Plug-In . SVG Version: 6.00 Build 0)  -->
<svg fill="#FFFFFF" version="1.1" id="Layer_1_1_" xmlns="http://www.w3.org/2000/svg" xmlns:xlink="http://www.w3.org/1999/xlink" x="0px" y="0px"
	 viewBox="0 0 48 48" style="enable-background:new 0 0 48 48;" xml:space="preserve">
<path d="M35,24c-6.075,0-11,4.925-11,11s4.925,11,11,11s11-4.925,11-11S41.075,24,35,24z M41.555,34.021l-2.995,2.272l1.014,3.246
	c0.146,0.466-0.026,0.972-0.424,1.254C38.955,40.931,38.727,41,38.5,41c-0.237,0-0.475-0.075-0.674-0.225L35,38.66l-2.826,2.116
	c-0.39,0.293-0.925,0.3-1.324,0.018c-0.398-0.282-0.57-0.788-0.424-1.254l1.014-3.246l-2.995-2.272
	c-0.385-0.292-0.541-0.797-0.387-1.255C28.213,32.309,28.642,32,29.125,32h3.697l1.114-3.241C34.092,28.305,34.52,28,35,28
	s0.908,0.305,1.064,0.759L37.178,32h3.697c0.483,0,0.912,0.309,1.066,0.766C42.095,33.224,41.94,33.729,41.555,34.021z"/>
<path d="M22,35c0-7.18,5.82-13,13-13c1.772,0,3.46,0.357,5,1v-3H28.5c-2.481,0-4.5-2.019-4.5-4.5V4H12.5C10.019,4,8,6.019,8,8.5v31
	c0,2.481,2.019,4.5,4.5,4.5h13.133C23.387,41.664,22,38.496,22,35z"/>
<path d="M28.5,17h10.621L27,4.879V15.5C27,16.327,27.673,17,28.5,17z"/>
</svg>