<?xml version="1.0" encoding="iso-8859-1"?>
<!-- Generator: Adobe Illustrator 25.1.0, SVG Export Plug-In . SVG Version: 6.00 Build 0)  -->
<svg fill="#FFFFFF" version="1.1" id="Layer_1" xmlns="http://www.w3.org/2000/svg" xmlns:xlink="http://www.w3.org/1999/xlink" x="0px" y="0px"
	 viewBox="0 0 48 48" style="enable-background:new 0 0 48 48;" xml:space="preserve">
<path d="M35,24c-6.075,0-11,4.925-11,11s4.925,11,11,11s11-4.925,11-11S41.075,24,35,24z M42,33c0,0.552-0.447,1-1,1h-4
	c-0.553,0-1-0.448-1-1s0.447-1,1-1h1.961c-0.925-1.228-2.372-2-3.961-2c-2.757,0-5,2.243-5,5s2.243,5,5,5
	c2.11,0,4.003-1.34,4.709-3.333c0.184-0.521,0.755-0.794,1.276-0.609c0.521,0.185,0.793,0.756,0.608,1.276
	C40.606,40.125,37.956,42,35,42c-3.859,0-7-3.14-7-7s3.141-7,7-7c1.924,0,3.709,0.804,5,2.128V29c0-0.552,0.447-1,1-1s1,0.448,1,1
	V33z"/>
<path d="M28.5,17h10.621L27,4.879V15.5C27,16.327,27.673,17,28.5,17z"/>
<g>
	<path d="M22,35c0-7.168,5.832-13,13-13c1.771,0,3.46,0.356,5,1v-3H28.5c-2.481,0-4.5-2.019-4.5-4.5V4H12.5C10.019,4,8,6.019,8,8.5
		v31c0,2.481,2.019,4.5,4.5,4.5h13.128C23.382,41.663,22,38.49,22,35z"/>
</g>
</svg>