<?xml version="1.0" encoding="iso-8859-1"?>
<!-- Generator: Adobe Illustrator 25.1.0, SVG Export Plug-In . SVG Version: 6.00 Build 0)  -->
<svg fill="#FFFFFF" version="1.1" id="Layer_1" xmlns="http://www.w3.org/2000/svg" xmlns:xlink="http://www.w3.org/1999/xlink" x="0px" y="0px"
	 viewBox="0 0 48 48" style="enable-background:new 0 0 48 48;" xml:space="preserve">
<path d="M33.5,32v-1.5c0-0.827,0.673-1.5,1.5-1.5s1.5,0.673,1.5,1.5V32H33.5z M46,35c0,6.075-4.925,11-11,11s-11-4.925-11-11
	s4.925-11,11-11S46,28.925,46,35z M40,34c0-0.931-0.639-1.706-1.5-1.929V30.5c0-1.93-1.57-3.5-3.5-3.5s-3.5,1.57-3.5,3.5v1.571
	C30.639,32.294,30,33.069,30,34v5c0,1.105,0.895,2,2,2h6c1.105,0,2-0.895,2-2V34z"/>
<g>
	<path d="M22.038,36H17.5c-0.828,0-1.5-0.671-1.5-1.5s0.672-1.5,1.5-1.5h4.654c0.162-1.046,0.45-2.051,0.846-3h-5.5
		c-0.828,0-1.5-0.671-1.5-1.5s0.672-1.5,1.5-1.5h7.26c0.924-1.18,2.047-2.197,3.319-3H17.5c-0.828,0-1.5-0.671-1.5-1.5
		s0.672-1.5,1.5-1.5h13c0.777,0,1.417,0.592,1.492,1.35c0,0,0,0.001,0.001,0.001C32.959,22.122,33.965,22,35,22
		c1.765,0,3.449,0.354,4.984,0.994c0.006,0.001,0.011,0.001,0.016,0.003V8.5C40,6.019,37.981,4,35.5,4h-23C10.019,4,8,6.019,8,8.5
		v31c0,2.481,2.019,4.5,4.5,4.5h13.119c-0.007-0.007-0.013-0.017-0.018-0.027C23.587,41.864,22.274,39.081,22.038,36z M17.5,12h5
		c0.828,0,1.5,0.671,1.5,1.5S23.328,15,22.5,15h-5c-0.828,0-1.5-0.671-1.5-1.5S16.672,12,17.5,12z"/>
</g>
</svg>