<?xml version="1.0" encoding="iso-8859-1"?>
<!-- Generator: Adobe Illustrator 24.2.3, SVG Export Plug-In . SVG Version: 6.00 Build 0)  -->
<svg fill="#FFFFFF" version="1.1" id="Layer_1" xmlns="http://www.w3.org/2000/svg" xmlns:xlink="http://www.w3.org/1999/xlink" x="0px" y="0px"
	 viewBox="0 0 48 48" style="enable-background:new 0 0 48 48;" xml:space="preserve">
<path d="M45.105,32.118L46,31.257c-0.401-1.147-0.981-2.205-1.706-3.139l-1.204,0.356c-2.195,0.649-4.485-0.673-5.022-2.898
	l-0.345-1.432C37.162,24.049,36.587,24,36,24c-0.587,0-1.162,0.049-1.723,0.144l-0.345,1.432c-0.537,2.225-2.827,3.547-5.022,2.898
	l-1.204-0.356c-0.724,0.933-1.305,1.992-1.706,3.139l0.895,0.861c1.635,1.574,1.635,4.191,0,5.765L26,38.743
	c0.401,1.147,0.981,2.205,1.706,3.139l1.204-0.356c2.195-0.649,4.485,0.673,5.022,2.898l0.345,1.432C34.838,45.951,35.414,46,36,46
	c0.587,0,1.162-0.049,1.723-0.144l0.345-1.432c0.537-2.225,2.827-3.547,5.022-2.898l1.204,0.356
	c0.724-0.933,1.305-1.992,1.706-3.139l-0.895-0.861C43.47,36.309,43.47,33.691,45.105,32.118z M36,38c-1.657,0-3-1.343-3-3
	c0-1.657,1.343-3,3-3c1.657,0,3,1.343,3,3C39,36.657,37.657,38,36,38z"/>
<path d="M23.634,39H12.5c-1.378,0-2.5-1.122-2.5-2.5V36h13.051C23.025,35.669,23,35.338,23,35c0-2.58,0.761-4.978,2.057-7H12.5
	c-1.378,0-2.5-1.122-2.5-2.5V25h17.696c2.252-1.872,5.146-3,8.304-3c1.772,0,3.46,0.357,5,1v-0.5c0-1.577-0.67-2.996-1.737-4
	C40.33,17.496,41,16.077,41,14.5v-3C41,8.467,38.533,6,35.5,6h-23C9.467,6,7,8.467,7,11.5v3c0,1.577,0.67,2.996,1.737,4
	C7.67,19.504,7,20.923,7,22.5v3c0,1.577,0.67,2.996,1.737,4C7.67,30.504,7,31.923,7,33.5v3c0,3.033,2.467,5.5,5.5,5.5h12.557
	C24.463,41.073,23.979,40.068,23.634,39z M10,14h28v0.5c0,1.378-1.122,2.5-2.5,2.5h-23c-1.378,0-2.5-1.122-2.5-2.5V14z"/>
</svg>