<?xml version="1.0" encoding="iso-8859-1"?>
<!-- Generator: Adobe Illustrator 25.2.0, SVG Export Plug-In . SVG Version: 6.00 Build 0)  -->
<svg fill="#FFFFFF" version="1.1" id="Layer_1" xmlns="http://www.w3.org/2000/svg" xmlns:xlink="http://www.w3.org/1999/xlink" x="0px" y="0px"
	 viewBox="0 0 48 48" style="enable-background:new 0 0 48 48;" xml:space="preserve">
<path d="M28.5,19c-3.038,0-5.5-2.462-5.5-5.5V5h-7c-2.761,0-5,2.239-5,5v21.983c0,2.761,2.239,5,5,5h16c2.761,0,5-2.239,5-5V19H28.5
	z M25.5,31.992h-7c-0.828,0-1.5-0.671-1.5-1.5s0.672-1.5,1.5-1.5h7c0.828,0,1.5,0.671,1.5,1.5S26.328,31.992,25.5,31.992z
	 M29.5,25.992h-11c-0.828,0-1.5-0.671-1.5-1.5s0.672-1.5,1.5-1.5h11c0.828,0,1.5,0.671,1.5,1.5S30.328,25.992,29.5,25.992z"/>
<line style="fill:none;stroke:#000000;stroke-width:3;stroke-miterlimit:10;" x1="24" y1="33.983" x2="24" y2="41.983"/>
<line style="fill:none;stroke:#000000;stroke-width:3;stroke-linecap:round;stroke-miterlimit:10;" x1="10.5" y1="41.483" x2="37.5" y2="41.483"/>
<path d="M26,13.5c0,1.378,1.122,2.5,2.5,2.5h8.408L26,5.092V13.5z"/>
</svg>