<?xml version="1.0" encoding="iso-8859-1"?>
<!-- Generator: Adobe Illustrator 22.1.0, SVG Export Plug-In . SVG Version: 6.00 Build 0)  -->
<svg fill="#FFFFFF" version="1.1" id="Layer_1_1_" xmlns="http://www.w3.org/2000/svg" xmlns:xlink="http://www.w3.org/1999/xlink" x="0px" y="0px"
	 viewBox="0 0 48 48" style="enable-background:new 0 0 48 48;" xml:space="preserve">
<path d="M40.5,10h-33C4.468,10,2,12.467,2,15.5v17C2,35.533,4.468,38,7.5,38h33c3.032,0,5.5-2.467,5.5-5.5v-17
	C46,12.467,43.532,10,40.5,10z M19.832,26.446c0.307,0.459,0.183,1.081-0.277,1.387c-0.171,0.114-0.363,0.168-0.554,0.168
	c-0.323,0-0.641-0.156-0.833-0.445L17,25.803l-1.168,1.752C15.64,27.844,15.322,28,14.999,28c-0.19,0-0.383-0.054-0.554-0.168
	c-0.46-0.306-0.584-0.927-0.277-1.387L15.798,24l-1.63-2.445c-0.307-0.459-0.183-1.081,0.277-1.387
	c0.46-0.308,1.08-0.182,1.387,0.277L17,22.198l1.168-1.752c0.306-0.459,0.925-0.585,1.387-0.277c0.46,0.306,0.584,0.927,0.277,1.387
	l-1.63,2.445L19.832,26.446z M28,27c0,0.552-0.448,1-1,1s-1-0.448-1-1v-3.238l-0.732,0.878c-0.38,0.456-1.156,0.456-1.536,0
	L23,23.762V27c0,0.552-0.448,1-1,1s-1-0.448-1-1v-6c0-0.421,0.264-0.797,0.66-0.94s0.838-0.023,1.108,0.3l1.732,2.078l1.732-2.078
	c0.27-0.324,0.714-0.443,1.108-0.3C27.736,20.203,28,20.579,28,21V27z M34,28h-3c-0.552,0-1-0.448-1-1v-6c0-0.552,0.448-1,1-1
	s1,0.448,1,1v5h2c0.552,0,1,0.448,1,1S34.552,28,34,28z"/>
</svg>