<?xml version="1.0" encoding="iso-8859-1"?>
<!-- Generator: Adobe Illustrator 25.2.0, SVG Export Plug-In . SVG Version: 6.00 Build 0)  -->
<svg fill="#FFFFFF" version="1.1" id="Layer_1" xmlns="http://www.w3.org/2000/svg" xmlns:xlink="http://www.w3.org/1999/xlink" x="0px" y="0px"
	 viewBox="0 0 48 48" style="enable-background:new 0 0 48 48;" xml:space="preserve">
<path d="M28.5,20c-2.481,0-4.5-2.019-4.5-4.5V4H12.5C10.019,4,8,6.019,8,8.5v31c0,2.481,2.019,4.5,4.5,4.5H32v-2.311
	c-1.836-1.649-3-4.033-3-6.689c0-4.962,4.038-9,9-9c0.688,0,1.356,0.085,2,0.232V20H28.5z M25.5,35h-9c-0.829,0-1.5-0.671-1.5-1.5
	s0.671-1.5,1.5-1.5h9c0.829,0,1.5,0.671,1.5,1.5S26.329,35,25.5,35z M29.5,28h-13c-0.829,0-1.5-0.671-1.5-1.5s0.671-1.5,1.5-1.5h13
	c0.829,0,1.5,0.671,1.5,1.5S30.329,28,29.5,28z"/>
<circle style="fill:none;stroke:#000000;stroke-width:3;stroke-linecap:round;stroke-linejoin:round;stroke-miterlimit:10;" cx="38" cy="35" r="5.5"/>
<path d="M38,40c-1.612,0-3.037-0.742-4-1.886V44.5c0,0.535,0.285,1.029,0.747,1.297c0.463,0.269,1.033,0.271,1.497,0.005L38,44.799
	l1.756,1.003C39.986,45.934,40.243,46,40.5,46c0.26,0,0.52-0.067,0.753-0.203C41.715,45.529,42,45.035,42,44.5v-6.386
	C41.037,39.258,39.612,40,38,40z"/>
<path d="M28.5,17h10.621L27,4.879V15.5C27,16.327,27.673,17,28.5,17z"/>
</svg>