<?xml version="1.0" encoding="iso-8859-1"?>
<!-- Generator: Adobe Illustrator 25.2.0, SVG Export Plug-In . SVG Version: 6.00 Build 0)  -->
<svg fill="#FFFFFF" version="1.1" id="Layer_1" xmlns="http://www.w3.org/2000/svg" xmlns:xlink="http://www.w3.org/1999/xlink" x="0px" y="0px"
	 viewBox="0 0 48 48" style="enable-background:new 0 0 48 48;" xml:space="preserve">
<g>
	<path d="M16,34c-0.552,0-1-0.448-1-1v-6c0-0.552,0.448-1,1-1s1,0.448,1,1v6C17,33.552,16.552,34,16,34z"/>
	<path d="M18,32h-2c-0.552,0-1-0.448-1-1s0.448-1,1-1h2c0.551,0,1-0.449,1-1s-0.449-1-1-1h-2c-0.552,0-1-0.448-1-1s0.448-1,1-1h2
		c1.654,0,3,1.346,3,3S19.654,32,18,32z"/>
</g>
<g>
	<path d="M24,34h-1c-0.552,0-1-0.448-1-1v-6c0-0.552,0.448-1,1-1h1c2.206,0,4,1.794,4,4S26.206,34,24,34z M24,28v4
		c1.103,0,2-0.897,2-2S25.103,28,24,28z"/>
</g>
<g>
	<path d="M30,34c-0.552,0-1-0.448-1-1v-6c0-0.552,0.448-1,1-1h3c0.552,0,1,0.448,1,1s-0.448,1-1,1h-2v5C31,33.552,30.552,34,30,34z"
		/>
	<path d="M32.5,31H30c-0.552,0-1-0.448-1-1s0.448-1,1-1h2.5c0.552,0,1,0.448,1,1S33.052,31,32.5,31z"/>
</g>
<path d="M34.44,36.561c0.586,0.586,1.535,0.586,2.121,0l2.44-2.44V44.5c0,0.829,0.671,1.5,1.5,1.5s1.5-0.671,1.5-1.5V34.121
	l2.439,2.439c0.586,0.586,1.535,0.586,2.121,0c0.586-0.585,0.586-1.536,0-2.121l-5-5C41.269,29.146,40.885,29,40.501,29
	s-0.768,0.146-1.061,0.439l-5,5C33.855,35.025,33.855,35.975,34.44,36.561z"/>
<path d="M28.501,17h10.621L27.001,4.879V15.5C27.001,16.327,27.674,17,28.501,17z"/>
<path d="M8.501,23.5h31c0.186,0,0.351,0.065,0.5,0.153V20h-11.5c-2.481,0-4.5-2.019-4.5-4.5V4h-11.5c-2.481,0-4.5,2.019-4.5,4.5
	v15.153C8.15,23.565,8.315,23.5,8.501,23.5z"/>
<path d="M37.001,38.664c-0.463,0.22-0.972,0.336-1.5,0.336c-0.935,0-1.814-0.364-2.474-1.025c-0.417-0.417-0.7-0.926-0.864-1.475
	H8.501c-0.186,0-0.351-0.065-0.5-0.153V39.5c0,2.481,2.019,4.5,4.5,4.5h23c0.529,0,1.029-0.108,1.5-0.276V38.664z"/>
<path d="M33.027,37.975c-0.662-0.661-1.026-1.54-1.026-2.475c0-0.17,0.025-0.335,0.049-0.5H9.001V25h30v2.35
	c0.464-0.222,0.97-0.35,1.5-0.35s1.036,0.129,1.5,0.35V24.5c0-1.379-1.121-2.5-2.5-2.5h-31c-1.379,0-2.5,1.121-2.5,2.5v11
	c0,1.379,1.121,2.5,2.5,2.5h24.556C33.047,37.991,33.036,37.985,33.027,37.975z"/>
</svg>