<?xml version="1.0" encoding="iso-8859-1"?>
<!-- Generator: Adobe Illustrator 25.1.0, SVG Export Plug-In . SVG Version: 6.00 Build 0)  -->
<svg fill="#FFFFFF" version="1.1" id="Layer_1" xmlns="http://www.w3.org/2000/svg" xmlns:xlink="http://www.w3.org/1999/xlink" x="0px" y="0px"
	 viewBox="0 0 48 48" style="enable-background:new 0 0 48 48;" xml:space="preserve">
<circle cx="24" cy="4.5" r="1.5"/>
<circle cx="24" cy="9.5" r="1.5"/>
<circle cx="24" cy="14.5" r="1.5"/>
<circle cx="24" cy="19.5" r="1.5"/>
<circle cx="24" cy="24.5" r="1.5"/>
<circle cx="24" cy="29.5" r="1.5"/>
<circle cx="24" cy="34" r="1.5"/>
<circle cx="24" cy="39" r="1.5"/>
<circle cx="24" cy="44" r="1.5"/>
<path d="M14.5,22c-0.829,0-1.5-0.671-1.5-1.5s0.671-1.5,1.5-1.5H20v-3h-5.5c-0.829,0-1.5-0.671-1.5-1.5s0.671-1.5,1.5-1.5H20V4h-7.5
	C10.019,4,8,6.019,8,8.5v31c0,2.481,2.019,4.5,4.5,4.5H20V22H14.5z"/>
<path d="M35.5,4H28v9h5.5c0.829,0,1.5,0.671,1.5,1.5S34.329,16,33.5,16H28v3h5.5c0.829,0,1.5,0.671,1.5,1.5S34.329,22,33.5,22H28v3
	h5.5c0.829,0,1.5,0.671,1.5,1.5S34.329,28,33.5,28H28v3h5.5c0.829,0,1.5,0.671,1.5,1.5S34.329,34,33.5,34H28v10h7.5
	c2.481,0,4.5-2.019,4.5-4.5v-31C40,6.019,37.981,4,35.5,4z"/>
</svg>