<?xml version="1.0" encoding="iso-8859-1"?>
<!-- Generator: Adobe Illustrator 25.2.0, SVG Export Plug-In . SVG Version: 6.00 Build 0)  -->
<svg fill="#FFFFFF" version="1.1" id="Layer_1" xmlns="http://www.w3.org/2000/svg" xmlns:xlink="http://www.w3.org/1999/xlink" x="0px" y="0px"
	 viewBox="0 0 48 48" style="enable-background:new 0 0 48 48;" xml:space="preserve">
<path d="M35,24c-6.075,0-11,4.925-11,11s4.925,11,11,11s11-4.925,11-11S41.075,24,35,24z M40.706,38.708l-2.999,2.999
	C37.512,41.902,37.256,42,37,42s-0.512-0.098-0.707-0.293c-0.391-0.391-0.391-1.023,0-1.414L37.586,39H33c-2.757,0-5-2.243-5-5
	s2.243-5,5-5h5c0.553,0,1,0.448,1,1s-0.447,1-1,1h-5c-1.654,0-3,1.346-3,3s1.346,3,3,3h4.586l-1.293-1.293
	c-0.391-0.391-0.391-1.023,0-1.414s1.023-0.391,1.414,0l2.999,2.999c0.093,0.092,0.166,0.203,0.217,0.326
	c0.101,0.244,0.101,0.52,0,0.764C40.872,38.505,40.799,38.615,40.706,38.708z"/>
<path d="M28.5,17h10.621L27,4.879V15.5C27,16.327,27.673,17,28.5,17z"/>
<path d="M28.5,20c-2.481,0-4.5-2.019-4.5-4.5V4H12.5C10.019,4,8,6.019,8,8.5v31c0,2.481,2.019,4.5,4.5,4.5h13.133
	C23.387,41.664,22,38.496,22,35h-5.5c-0.829,0-1.5-0.671-1.5-1.5s0.671-1.5,1.5-1.5h5.862c0.341-1.441,0.919-2.789,1.695-4H16.5
	c-0.829,0-1.5-0.671-1.5-1.5s0.671-1.5,1.5-1.5h10.196c2.252-1.872,5.146-3,8.304-3c1.772,0,3.46,0.357,5,1v-3H28.5z"/>
</svg>