<?xml version="1.0" encoding="iso-8859-1"?>
<!-- Generator: Adobe Illustrator 22.1.0, SVG Export Plug-In . SVG Version: 6.00 Build 0)  -->
<svg fill="#FFFFFF" version="1.1" id="Layer_1_1_" xmlns="http://www.w3.org/2000/svg" xmlns:xlink="http://www.w3.org/1999/xlink" x="0px" y="0px"
	 viewBox="0 0 48 48" style="enable-background:new 0 0 48 48;" xml:space="preserve">
<path d="M35,24c-6.075,0-11,4.925-11,11s4.925,11,11,11s11-4.925,11-11S41.075,24,35,24z M40.707,39.293
	c0.391,0.391,0.391,1.023,0,1.414C40.512,40.902,40.256,41,40,41s-0.512-0.098-0.707-0.293L35,36.414l-4.293,4.293
	C30.512,40.902,30.256,41,30,41s-0.512-0.098-0.707-0.293c-0.391-0.391-0.391-1.023,0-1.414L33.586,35l-4.293-4.293
	c-0.391-0.391-0.391-1.023,0-1.414s1.023-0.391,1.414,0L35,33.586l4.293-4.293c0.391-0.391,1.023-0.391,1.414,0s0.391,1.023,0,1.414
	L36.414,35L40.707,39.293z"/>
<path d="M28.5,17h10.621L27,4.879V15.5C27,16.327,27.673,17,28.5,17z"/>
<path d="M22,35c0-7.168,5.832-13,13-13c1.771,0,3.46,0.359,5,1.003V20H28.5c-2.481,0-4.5-2.019-4.5-4.5V4H12.5
	C10.019,4,8,6.019,8,8.5v31c0,2.481,2.019,4.5,4.5,4.5h13.141C23.392,41.662,22,38.493,22,35z"/>
</svg>