<?xml version="1.0" encoding="iso-8859-1"?>
<!-- Generator: Adobe Illustrator 22.1.0, SVG Export Plug-In . SVG Version: 6.00 Build 0)  -->
<svg fill="#FFFFFF" version="1.1" id="Layer_1_1_" xmlns="http://www.w3.org/2000/svg" xmlns:xlink="http://www.w3.org/1999/xlink" x="0px" y="0px"
	 viewBox="0 0 48 48" style="enable-background:new 0 0 48 48;" xml:space="preserve">
<path d="M35,24c-6.075,0-11,4.925-11,11s4.925,11,11,11s11-4.925,11-11S41.075,24,35,24z M41.707,31.707l-8,8
	C33.512,39.902,33.256,40,33,40s-0.512-0.098-0.707-0.293l-4-4c-0.391-0.391-0.391-1.023,0-1.414s1.023-0.391,1.414,0L33,37.586
	l7.293-7.293c0.391-0.391,1.023-0.391,1.414,0S42.098,31.316,41.707,31.707z"/>
<path d="M22,35h-4.509c-0.828,0-1.5-0.672-1.5-1.5c0-0.759,0.564-1.387,1.296-1.486L17.491,32h4.872
	c0.344-1.446,0.925-2.785,1.708-4h-6.58c-0.828,0-1.5-0.685-1.5-1.514c0-0.759,0.564-1.387,1.296-1.486l0.204-0.014h9.229
	C28.971,23.122,31.856,22,35,22c1.771,0,3.46,0.359,5,1.003V20H28.5c-2.481,0-4.5-2.019-4.5-4.5V4H12.5C10.019,4,8,6.019,8,8.5v31
	c0,2.481,2.019,4.5,4.5,4.5h13.141C23.392,41.662,22,38.493,22,35z"/>
<path d="M28.5,17h10.621L27,4.879V15.5C27,16.327,27.673,17,28.5,17z"/>
</svg>