<?xml version="1.0" encoding="iso-8859-1"?>
<!-- Generator: Adobe Illustrator 22.1.0, SVG Export Plug-In . SVG Version: 6.00 Build 0)  -->
<svg fill="#FFFFFF" version="1.1" id="Layer_1_1_" xmlns="http://www.w3.org/2000/svg" xmlns:xlink="http://www.w3.org/1999/xlink" x="0px" y="0px"
	 viewBox="0 0 48 48" style="enable-background:new 0 0 48 48;" xml:space="preserve">
<path d="M28.5,17h10.621L27,4.879V15.5C27,16.327,27.673,17,28.5,17z"/>
<path style="fill:none;stroke:#000000;stroke-width:3;stroke-linejoin:round;stroke-miterlimit:10;" d="M39.5,36.5h-31
	c-0.552,0-1-0.448-1-1v-11c0-0.552,0.448-1,1-1h31c0.552,0,1,0.448,1,1v11C40.5,36.052,40.052,36.5,39.5,36.5z"/>
<path d="M39.5,36.5h-31c-0.186,0-0.351-0.065-0.5-0.153V39.5c0,2.481,2.019,4.5,4.5,4.5h23c2.481,0,4.5-2.019,4.5-4.5v-3.153
	C39.851,36.435,39.686,36.5,39.5,36.5z"/>
<path d="M8.5,23.5h31c0.186,0,0.351,0.065,0.5,0.153V20H28.5c-2.481,0-4.5-2.019-4.5-4.5V4H12.5C10.019,4,8,6.019,8,8.5v15.153
	C8.149,23.565,8.314,23.5,8.5,23.5z"/>
<path d="M12.454,34c-1.063,0-2.048-0.685-2.396-1.666c-0.185-0.52,0.087-1.092,0.608-1.277c0.52-0.185,1.092,0.087,1.277,0.608
	C12.009,31.853,12.234,32,12.454,32C12.74,32,13,31.762,13,31.5V27c0-0.552,0.448-1,1-1s1,0.448,1,1v4.5
	C15,32.879,13.858,34,12.454,34z"/>
<path d="M36,34c-0.328,0-0.643-0.162-0.832-0.445L33,30.303V33c0,0.552-0.448,1-1,1s-1-0.448-1-1v-6c0-0.44,0.289-0.83,0.71-0.957
	c0.421-0.128,0.876,0.035,1.122,0.402L35,29.698V27c0-0.552,0.448-1,1-1s1,0.448,1,1v6c0,0.44-0.289,0.83-0.71,0.957
	C36.194,33.987,36.097,34,36,34z"/>
<path d="M26.5,34c-1.93,0-3.5-1.794-3.5-4s1.57-4,3.5-4s3.5,1.794,3.5,4S28.43,34,26.5,34z M26.5,28c-0.813,0-1.5,0.916-1.5,2
	s0.687,2,1.5,2s1.5-0.916,1.5-2S27.313,28,26.5,28z"/>
<path d="M19.5,34h-1.092c-1.081,0-1.839-0.642-2.115-0.918c-0.391-0.391-0.391-1.023,0-1.414c0.391-0.391,1.023-0.391,1.414,0
	C17.785,31.746,18.066,32,18.408,32H19.5c0.276,0,0.5-0.224,0.5-0.5S19.776,31,19.5,31h-0.875c-1.378,0-2.5-1.122-2.5-2.5
	s1.122-2.5,2.5-2.5H19.5c1.131,0,1.876,0.712,1.957,0.793c0.391,0.391,0.391,1.023,0,1.414s-1.023,0.39-1.414,0c0,0,0,0,0,0
	C20.042,28.208,19.804,28,19.5,28h-0.875c-0.276,0-0.5,0.224-0.5,0.5s0.224,0.5,0.5,0.5H19.5c1.378,0,2.5,1.122,2.5,2.5
	C22,32.879,20.878,34,19.5,34z"/>
</svg>