<?xml version="1.0" encoding="iso-8859-1"?>
<!-- Generator: Adobe Illustrator 25.2.0, SVG Export Plug-In . SVG Version: 6.00 Build 0)  -->
<svg fill="#FFFFFF" version="1.1" id="Layer_1" xmlns="http://www.w3.org/2000/svg" xmlns:xlink="http://www.w3.org/1999/xlink" x="0px" y="0px"
	 viewBox="0 0 48 48" style="enable-background:new 0 0 48 48;" xml:space="preserve">
<polyline style="fill:none;stroke:#000000;stroke-width:3;stroke-linecap:round;stroke-linejoin:round;stroke-miterlimit:10;" points="
	32.5,31.5 41.5,31.5 41.5,40.5 "/>
<path style="fill:none;stroke:#000000;stroke-width:3;stroke-linecap:round;stroke-linejoin:round;stroke-miterlimit:10;" d="
	M40,32.5c0,0-5.744,9-17.229,9S6.5,32.5,6.5,32.5"/>
<path d="M28.5,17h10.621L27,4.879V15.5C27,16.327,27.673,17,28.5,17z"/>
<g>
	<path d="M9.59,30.857C9.742,31.138,13.552,38,22.771,38c4.196,0,7.445-1.411,9.781-3H32.5c-1.93,0-3.5-1.57-3.5-3.5
		s1.57-3.5,3.5-3.5H40v-8H28.5c-2.481,0-4.5-2.019-4.5-4.5V4H12.5C10.019,4,8,6.019,8,8.5v20.851
		C8.675,29.671,9.233,30.186,9.59,30.857z"/>
</g>
</svg>