<?xml version="1.0" encoding="iso-8859-1"?>
<!-- Generator: Adobe Illustrator 22.1.0, SVG Export Plug-In . SVG Version: 6.00 Build 0)  -->
<svg fill="#FFFFFF" version="1.1" id="Layer_1_1_" xmlns="http://www.w3.org/2000/svg" xmlns:xlink="http://www.w3.org/1999/xlink" x="0px" y="0px"
	 viewBox="0 0 48 48" style="enable-background:new 0 0 48 48;" xml:space="preserve">
<path d="M28.5,17h10.621L27,4.879V15.5C27,16.327,27.673,17,28.5,17z"/>
<path d="M28.5,20c-2.481,0-4.5-2.019-4.5-4.5V4H12.5C10.019,4,8,6.019,8,8.5v31c0,2.481,2.019,4.5,4.5,4.5h23
	c2.481,0,4.5-2.019,4.5-4.5V20H28.5z M31,29c0,0.332-0.165,0.642-0.439,0.828c-0.274,0.186-0.623,0.225-0.932,0.101L26,28.477V35
	c0,1.657-1.791,3-4,3s-4-1.343-4-3s1.791-3,4-3c0.732,0,1.41,0.158,2,0.416V24c0-0.332,0.165-0.642,0.439-0.828
	c0.275-0.185,0.625-0.224,0.932-0.101l3.743,1.497C30.26,25.027,31,26.12,31,27.354V29z"/>
</svg>