<?xml version="1.0" encoding="iso-8859-1"?>
<!-- Generator: Adobe Illustrator 22.1.0, SVG Export Plug-In . SVG Version: 6.00 Build 0)  -->
<svg fill="#FFFFFF" version="1.1" id="Layer_1_1_" xmlns="http://www.w3.org/2000/svg" xmlns:xlink="http://www.w3.org/1999/xlink" x="0px" y="0px"
	 viewBox="0 0 48 48" style="enable-background:new 0 0 48 48;" xml:space="preserve">
<path d="M35,24c-6.075,0-11,4.925-11,11c0,6.075,4.925,11,11,11s11-4.925,11-11C46,28.925,41.075,24,35,24z M42,36h-6v6
	c0,0.552-0.448,1-1,1s-1-0.448-1-1v-6h-6c-0.552,0-1-0.448-1-1s0.448-1,1-1h6v-6c0-0.552,0.448-1,1-1s1,0.448,1,1v6h6
	c0.552,0,1,0.448,1,1S42.552,36,42,36z"/>
<path d="M28.5,17h10.621L27,4.879V15.5C27,16.327,27.673,17,28.5,17z"/>
<path d="M22,35h-0.5c-0.828,0-1.5-0.671-1.5-1.5s0.672-1.5,1.5-1.5h0.863c0.342-1.441,0.921-2.788,1.7-4H21.5
	c-0.828,0-1.5-0.671-1.5-1.5s0.672-1.5,1.5-1.5h5.205c2.253-1.872,5.144-3,8.295-3c1.771,0,3.46,0.359,5,1.003V20H28.5
	c-2.481,0-4.5-2.019-4.5-4.5V4H12.5C10.019,4,8,6.019,8,8.5v31c0,2.481,2.019,4.5,4.5,4.5h13.141C23.392,41.662,22,38.493,22,35z
	 M16.5,35c-0.828,0-1.5-0.672-1.5-1.5s0.672-1.5,1.5-1.5s1.5,0.672,1.5,1.5S17.328,35,16.5,35z M16.5,28c-0.828,0-1.5-0.672-1.5-1.5
	s0.672-1.5,1.5-1.5s1.5,0.672,1.5,1.5S17.328,28,16.5,28z"/>
</svg>