<?xml version="1.0" encoding="iso-8859-1"?>
<!-- Generator: Adobe Illustrator 25.2.1, SVG Export Plug-In . SVG Version: 6.00 Build 0)  -->
<svg fill="#FFFFFF" version="1.1" id="Layer_1" xmlns="http://www.w3.org/2000/svg" xmlns:xlink="http://www.w3.org/1999/xlink" x="0px" y="0px"
	 viewBox="0 0 48 48" style="enable-background:new 0 0 48 48;" xml:space="preserve">
<g>
</g>
<g>
	<path d="M11.5,5h-1C8.019,5,6,7.019,6,9.5v25.526C6.838,34.391,7.87,34,9,34h2.5c1.379,0,2.5-1.121,2.5-2.5V11V7.5
		C14,6.121,12.879,5,11.5,5z"/>
	<path d="M35,24c-6.63,0-12-5.37-12-12c0-0.34,0.01-0.67,0.04-1H16v20.5c0,2.49-2.02,4.5-4.5,4.5H9c-1.65,0-3,1.35-3,3v0.01
		c0,1.64,1.34,2.98,2.98,2.99H37.5c2.49,0,4.5-2.01,4.5-4.5V21.75C40.03,23.17,37.62,24,35,24z"/>
</g>
<g>
	<path d="M43.6,13.2C43.222,12.917,43,12.472,43,12s0.222-0.917,0.6-1.2l0.645-0.484c0.323-0.242,0.484-0.66,0.373-1.049
		c-0.459-1.614-1.315-3.058-2.454-4.228c-0.281-0.289-0.722-0.359-1.093-0.2l-0.732,0.313c-0.434,0.186-0.93,0.156-1.339-0.08
		s-0.683-0.651-0.739-1.12l-0.096-0.801c-0.048-0.4-0.328-0.747-0.719-0.846C36.662,2.107,35.844,2,35,2s-1.662,0.107-2.445,0.306
		c-0.391,0.099-0.671,0.445-0.719,0.846l-0.097,0.8c-0.056,0.469-0.33,0.884-0.739,1.12s-0.905,0.266-1.339,0.08l-0.733-0.313
		c-0.371-0.158-0.811-0.089-1.093,0.201c-1.138,1.17-1.995,2.614-2.454,4.228c-0.11,0.389,0.05,0.806,0.373,1.049L26.4,10.8
		c0.378,0.283,0.6,0.728,0.6,1.2s-0.222,0.917-0.6,1.2l-0.645,0.484c-0.323,0.242-0.484,0.66-0.373,1.049
		c0.459,1.614,1.315,3.058,2.454,4.228c0.281,0.289,0.722,0.359,1.093,0.2l0.732-0.313c0.434-0.186,0.931-0.155,1.339,0.08
		c0.408,0.235,0.683,0.651,0.739,1.12l0.096,0.801c0.048,0.401,0.328,0.747,0.719,0.846C33.338,21.893,34.156,22,35,22
		s1.662-0.107,2.445-0.306c0.391-0.099,0.671-0.445,0.719-0.846l0.096-0.801c0.056-0.469,0.331-0.884,0.739-1.12
		s0.905-0.266,1.339-0.08l0.732,0.313c0.371,0.159,0.811,0.089,1.093-0.2c1.138-1.17,1.995-2.614,2.454-4.228
		c0.11-0.389-0.05-0.806-0.373-1.049L43.6,13.2z M35,15c-1.657,0-3-1.343-3-3s1.343-3,3-3s3,1.343,3,3S36.657,15,35,15z"/>
</g>
</svg>