<?xml version="1.0" encoding="iso-8859-1"?>
<!-- Generator: Adobe Illustrator 24.2.3, SVG Export Plug-In . SVG Version: 6.00 Build 0)  -->
<svg fill="#FFFFFF" version="1.1" id="Layer_1" xmlns="http://www.w3.org/2000/svg" xmlns:xlink="http://www.w3.org/1999/xlink" x="0px" y="0px"
	 viewBox="0 0 48 48" style="enable-background:new 0 0 48 48;" xml:space="preserve">
<path d="M35,24c-6.075,0-11,4.925-11,11c0,6.075,4.925,11,11,11c6.075,0,11-4.925,11-11C46,28.925,41.075,24,35,24z M35,40
	c-5.182,0-7.757-4.313-7.864-4.496c-0.181-0.312-0.181-0.696,0-1.008C27.243,34.313,29.818,30,35,30s7.757,4.313,7.864,4.496
	c0.181,0.312,0.181,0.696,0,1.008C42.757,35.688,40.182,40,35,40z M38,35c0,1.657-1.343,3-3,3s-3-1.343-3-3s1.343-3,3-3
	S38,33.343,38,35z"/>
<path d="M37.5,6h-27C7.468,6,5,8.468,5,11.5V36c0,3.309,2.691,6,6,6h13.074c-0.78-1.21-1.361-2.558-1.705-4H11c-1.103,0-2-0.897-2-2
	V16h30v6.605c1.466,0.474,2.813,1.205,4,2.134V11.5C43,8.468,40.532,6,37.5,6z"/>
<path d="M34.5,20h-13c-0.828,0-1.5,0.671-1.5,1.5s0.672,1.5,1.5,1.5h8.499c1.54-0.643,3.228-1,5.001-1
	c0.302,0,0.597,0.025,0.894,0.045C35.96,21.876,36,21.693,36,21.5C36,20.671,35.328,20,34.5,20z"/>
<path d="M21.5,35H22c0-1.034,0.134-2.035,0.362-3H21.5c-0.829,0-1.5,0.671-1.5,1.5S20.671,35,21.5,35z"/>
<path d="M21.5,29h1.974c0.575-1.103,1.304-2.111,2.158-3H21.5c-0.829,0-1.5,0.671-1.5,1.5S20.671,29,21.5,29z"/>
<line style="fill:none;stroke:#000000;stroke-width:3;stroke-linecap:round;stroke-miterlimit:10;" x1="13.5" y1="21.5" x2="15.5" y2="21.5"/>
<line style="fill:none;stroke:#000000;stroke-width:3;stroke-linecap:round;stroke-miterlimit:10;" x1="13.5" y1="27.5" x2="15.5" y2="27.5"/>
<line style="fill:none;stroke:#000000;stroke-width:3;stroke-linecap:round;stroke-miterlimit:10;" x1="13.5" y1="33.5" x2="15.5" y2="33.5"/>
</svg>