<?xml version="1.0" encoding="iso-8859-1"?>
<!-- Generator: Adobe Illustrator 22.1.0, SVG Export Plug-In . SVG Version: 6.00 Build 0)  -->
<svg fill="#FFFFFF" version="1.1" id="Layer_1_1_" xmlns="http://www.w3.org/2000/svg" xmlns:xlink="http://www.w3.org/1999/xlink" x="0px" y="0px"
	 viewBox="0 0 48 48" style="enable-background:new 0 0 48 48;" xml:space="preserve">
<path d="M28.5,17h10.621L27,4.879V15.5C27,16.327,27.673,17,28.5,17z"/>
<path style="fill:none;stroke:#000000;stroke-width:3;stroke-linejoin:round;stroke-miterlimit:10;" d="M39.5,36.5h-31
	c-0.552,0-1-0.448-1-1v-11c0-0.552,0.448-1,1-1h31c0.552,0,1,0.448,1,1v11C40.5,36.052,40.052,36.5,39.5,36.5z"/>
<path d="M39.5,36.5h-31c-0.186,0-0.351-0.065-0.5-0.153V39.5c0,2.481,2.019,4.5,4.5,4.5h23c2.481,0,4.5-2.019,4.5-4.5v-3.153
	C39.851,36.435,39.686,36.5,39.5,36.5z"/>
<path d="M8.5,23.5h31c0.186,0,0.351,0.065,0.5,0.153V20H28.5c-2.481,0-4.5-2.019-4.5-4.5V4H12.5C10.019,4,8,6.019,8,8.5v15.153
	C8.149,23.565,8.314,23.5,8.5,23.5z"/>
<path d="M31.291,34C29.476,34,28,32.206,28,30s1.477-4,3.292-4c1.442,0,2.314,0.976,2.603,1.553
	c0.247,0.494,0.047,1.095-0.447,1.342c-0.495,0.249-1.095,0.047-1.342-0.447C32.071,28.388,31.827,28,31.291,28
	C30.603,28,30,28.935,30,30s0.604,2,1.292,2c0.356,0,0.583-0.171,0.708-0.309V31c0-0.552,0.448-1,1-1s1,0.448,1,1v1
	c0,0.155-0.036,0.309-0.105,0.447C33.606,33.024,32.733,34,31.291,34z"/>
<path d="M16.454,34c-1.062,0-2.048-0.685-2.396-1.666c-0.185-0.52,0.087-1.092,0.608-1.277c0.52-0.185,1.092,0.087,1.277,0.608
	C16.009,31.853,16.234,32,16.454,32C16.74,32,17,31.762,17,31.5V27c0-0.552,0.448-1,1-1s1,0.448,1,1v4.5
	C19,32.878,17.858,34,16.454,34z"/>
<path d="M24,26h-2c-0.552,0-1,0.448-1,1v6c0,0.552,0.448,1,1,1s1-0.448,1-1v-1h1c1.654,0,3-1.346,3-3S25.654,26,24,26z M24,30h-1v-2
	h1c0.551,0,1,0.449,1,1S24.551,30,24,30z"/>
</svg>