<?xml version="1.0" encoding="iso-8859-1"?>
<!-- Generator: Adobe Illustrator 25.1.0, SVG Export Plug-In . SVG Version: 6.00 Build 0)  -->
<svg fill="#FFFFFF" version="1.1" id="Layer_1" xmlns="http://www.w3.org/2000/svg" xmlns:xlink="http://www.w3.org/1999/xlink" x="0px" y="0px"
	 viewBox="0 0 48 48" style="enable-background:new 0 0 48 48;" xml:space="preserve">
<line style="opacity:0.2;fill:none;stroke:#000000;stroke-width:3;stroke-linecap:round;stroke-miterlimit:10;" x1="17.5" y1="33.5" x2="25.5" y2="33.5"/>
<circle cx="37.5" cy="29.5" r="5.5"/>
<path d="M46,38.862C46,37.833,45.213,37,44.242,37H30.758C29.787,37,29,37.833,29,38.862v1.677C29,43.396,32.445,46,37.5,46
	s8.5-2.604,8.5-5.462V38.862z"/>
<g style="opacity:0.2;">
	<path d="M16,26.5c0,0.829,0.671,1.5,1.5,1.5h12.651c0.226-1.108,0.696-2.128,1.353-3H17.5C16.671,25,16,25.671,16,26.5z"/>
</g>
<path d="M28.5,17h10.621L27,4.879V15.5C27,16.327,27.673,17,28.5,17z"/>
<g>
	<path d="M27,40.538v-1.676C27,36.732,28.686,35,30.758,35h1.648C30.927,33.629,30,31.671,30,29.5c0-4.136,3.364-7.5,7.5-7.5
		c0.876,0,1.718,0.152,2.5,0.429V20H28.5c-2.485,0-4.5-2.015-4.5-4.5V4H12.5C10.015,4,8,6.015,8,8.5v31c0,2.485,2.015,4.5,4.5,4.5
		h15.619C27.4,42.977,27,41.804,27,40.538z"/>
</g>
</svg>