<?xml version="1.0" encoding="iso-8859-1"?>
<!-- Generator: Adobe Illustrator 24.2.1, SVG Export Plug-In . SVG Version: 6.00 Build 0)  -->
<svg fill="#FFFFFF" version="1.1" id="Layer_1" xmlns="http://www.w3.org/2000/svg" xmlns:xlink="http://www.w3.org/1999/xlink" x="0px" y="0px"
	 viewBox="0 0 48 48" style="enable-background:new 0 0 48 48;" xml:space="preserve">
<path d="M35,40l-0.813,1.219C33.446,42.332,32.197,43,30.859,43H17.5C12.253,43,8,38.747,8,33.5V14.141
	c0-1.337,0.668-2.586,1.781-3.328L11,10v23.5c0,3.59,2.91,6.5,6.5,6.5H35z"/>
<path d="M34.5,38h-16c-3.033,0-5.5-2.467-5.5-5.5v-22C13,7.467,15.467,5,18.5,5h16c3.033,0,5.5,2.467,5.5,5.5v22
	C40,35.533,37.533,38,34.5,38z"/>
</svg>