<?xml version="1.0" encoding="iso-8859-1"?>
<!-- Generator: Adobe Illustrator 22.1.0, SVG Export Plug-In . SVG Version: 6.00 Build 0)  -->
<svg fill="#FFFFFF" version="1.1" id="Layer_1_1_" xmlns="http://www.w3.org/2000/svg" xmlns:xlink="http://www.w3.org/1999/xlink" x="0px" y="0px"
	 viewBox="0 0 48 48" style="enable-background:new 0 0 48 48;" xml:space="preserve">
<path d="M44.68,25.32c-0.859-0.86-1.987-1.322-3.181-1.32c-0.274,0.001-0.552,0.025-0.831,0.076
	c-0.884,0.159-1.729,0.62-2.442,1.334L26.427,37.209c-0.357,0.357-0.62,0.802-0.76,1.285c0,0-1.569,5.48-1.569,5.48
	c-0.072,0.19-0.105,0.391-0.098,0.592c0.013,0.363,0.156,0.722,0.434,1c0.277,0.277,0.634,0.42,0.996,0.434
	c0.201,0.007,0.404-0.025,0.595-0.098c0,0,5.48-1.569,5.48-1.569c0.483-0.14,0.927-0.402,1.285-0.76l11.799-11.799
	c0.714-0.713,1.175-1.558,1.334-2.442c0.05-0.279,0.075-0.557,0.076-0.831C46.002,27.307,45.541,26.179,44.68,25.32z"/>
<path d="M22.228,43.266l0.003,0.001c0.053-0.224,0.12-0.457,0.189-0.7l0.539-1.884l0.786-2.745c0.233-0.807,0.671-1.548,1.267-2.144
	l11.798-11.799c0.92-0.921,2.019-1.529,3.189-1.805V20H28.5c-2.481,0-4.5-2.019-4.5-4.5V4H12.5C10.019,4,8,6.019,8,8.5v31
	c0,2.481,2.019,4.5,4.5,4.5h9.543C22.079,43.751,22.138,43.505,22.228,43.266z"/>
<path d="M28.5,17h10.621L27,4.879V15.5C27,16.327,27.673,17,28.5,17z"/>
</svg>