<?xml version="1.0" encoding="iso-8859-1"?>
<!-- Generator: Adobe Illustrator 25.2.0, SVG Export Plug-In . SVG Version: 6.00 Build 0)  -->
<svg fill="#FFFFFF" version="1.1" id="Layer_1" xmlns="http://www.w3.org/2000/svg" xmlns:xlink="http://www.w3.org/1999/xlink" x="0px" y="0px"
	 viewBox="0 0 48 48" style="enable-background:new 0 0 48 48;" xml:space="preserve">
<path d="M33.5,32v-1.5c0-0.827,0.673-1.5,1.5-1.5s1.5,0.673,1.5,1.5V32H33.5z M46,35c0,6.075-4.925,11-11,11s-11-4.925-11-11
	s4.925-11,11-11S46,28.925,46,35z M40,34c0-0.931-0.639-1.706-1.5-1.929V30.5c0-1.93-1.57-3.5-3.5-3.5s-3.5,1.57-3.5,3.5v1.571
	C30.639,32.294,30,33.069,30,34v5c0,1.105,0.895,2,2,2h6c1.105,0,2-0.895,2-2V34z"/>
<path d="M28.5,17h10.621L27,4.879V15.5C27,16.327,27.673,17,28.5,17z"/>
<path d="M22,35c0-7.18,5.82-13,13-13c1.772,0,3.46,0.357,5,1v-3H28.5c-2.481,0-4.5-2.019-4.5-4.5V4H12.5C10.019,4,8,6.019,8,8.5v31
	c0,2.481,2.019,4.5,4.5,4.5h13.133C23.387,41.664,22,38.496,22,35z"/>
</svg>