<?xml version="1.0" encoding="iso-8859-1"?>
<!-- Generator: Adobe Illustrator 23.1.1, SVG Export Plug-In . SVG Version: 6.00 Build 0)  -->
<svg fill="#FFFFFF" version="1.1" id="Layer_1" xmlns="http://www.w3.org/2000/svg" xmlns:xlink="http://www.w3.org/1999/xlink" x="0px" y="0px"
	 viewBox="0 0 48 48" style="enable-background:new 0 0 48 48;" xml:space="preserve">
<g>
	<path style="fill:none;stroke:#000000;stroke-width:3;stroke-linejoin:round;stroke-miterlimit:10;" d="M17.591,39.5H15.78
		c-1.209,0-2.189-0.98-2.189-2.189V30.5c0-2.209,1.791-4,4-4h13c2.209,0,4,1.791,4,4v6.818c0,1.205-0.977,2.182-2.182,2.182h-1.818"
		/>
	<path style="fill:none;stroke:#000000;stroke-width:3;stroke-linejoin:round;stroke-miterlimit:10;" d="M18.591,41.5v-4
		c0-1.105,0.895-2,2-2h7c1.105,0,2,0.895,2,2v4c0,1.105-0.895,2-2,2h-7C19.486,43.5,18.591,42.605,18.591,41.5z"/>
	<path style="fill:none;stroke:#000000;stroke-width:3;stroke-linejoin:round;stroke-miterlimit:10;" d="M18.591,25.751v-2.346
		c0-1.052,0.853-1.905,1.905-1.905h7.19c1.052,0,1.905,0.853,1.905,1.905v2.346"/>
</g>
<path d="M39.091,17h-0.577C37.761,9.707,31.58,4,24.091,4S10.421,9.707,9.668,17H9.091c-4.963,0-9,4.037-9,9s4.037,9,9,9h1v-4.5
	c0-3.205,2.086-6.02,5-7.065v-0.031c0-2.98,2.425-5.404,5.405-5.404h7.19c2.98,0,5.404,2.424,5.404,5.404v0.031
	c2.914,1.045,5,3.859,5,7.065V35h1c4.963,0,9-4.037,9-9S44.054,17,39.091,17z"/>
</svg>