<?xml version="1.0" encoding="iso-8859-1"?>
<!-- Generator: Adobe Illustrator 22.1.0, SVG Export Plug-In . SVG Version: 6.00 Build 0)  -->
<svg fill="#FFFFFF" version="1.1" id="Layer_1" xmlns="http://www.w3.org/2000/svg" xmlns:xlink="http://www.w3.org/1999/xlink" x="0px" y="0px"
	 viewBox="0 0 48 48" style="enable-background:new 0 0 48 48;" xml:space="preserve">
<path d="M28.5,17h10.621L27,4.879V15.5C27,16.327,27.673,17,28.5,17z"/>
<path d="M24.761,33.307c-0.426-0.408-1.096-0.408-1.521,0L12.121,43.962C12.248,43.973,12.37,44,12.5,44h23
	c0.13,0,0.252-0.027,0.379-0.038L24.761,33.307z"/>
<path d="M21.163,31.141c1.592-1.523,4.082-1.523,5.674,0l11.931,11.434C39.526,41.769,40,40.691,40,39.5V20H28.5
	c-2.481,0-4.5-2.019-4.5-4.5V4H12.5C10.019,4,8,6.019,8,8.5v31c0,1.191,0.474,2.269,1.232,3.075L21.163,31.141z M29.5,23
	c1.381,0,2.5,1.119,2.5,2.5S30.881,28,29.5,28S27,26.881,27,25.5S28.119,23,29.5,23z"/>
</svg>