<svg fill="#FFFFFF" xmlns="http://www.w3.org/2000/svg"  viewBox="0 0 48 48" width="48px" height="48px"><path d="M 12.5 4 C 10.02 4 8 6.02 8 8.5 L 8 22.960938 C 8.969 21.157937 10.108 19.820641 11 18.931641 L 11 8.5 C 11 7.67 11.67 7 12.5 7 L 24 7 L 24 15.5 C 24 17.98 26.02 20 28.5 20 L 37 20 L 37 39.5 C 37 40.327 36.327 41 35.5 41 L 24.974609 41 C 24.983609 41.148 25 41.295359 25 41.443359 L 25 42.5 C 25 43.039 24.868391 43.544 24.650391 44 L 35.5 44 C 37.981 44 40 41.981 40 39.5 L 40 18.5 C 40 18.085 39.831797 17.710703 39.560547 17.439453 L 26.560547 4.4394531 C 26.289297 4.1682031 25.915 4 25.5 4 L 12.5 4 z M 27 9.1210938 L 34.878906 17 L 28.5 17 C 27.67 17 27 16.33 27 15.5 L 27 9.1210938 z M 14.517578 19 A 1.50015 1.50015 0 0 0 13.640625 19.271484 C 13.640625 19.271484 8.0019531 23.285714 8.0019531 31 L 8.0019531 35.556641 C 8.0019531 35.944146 7.9105861 36.326007 7.7363281 36.675781 L 6.5820312 38.986328 C 6.1992188 39.749333 6 40.590301 6 41.443359 L 6 42.5 A 1.50015 1.50015 0 0 0 7.5 44 L 10.5 44 A 1.50015 1.50015 0 0 0 12 42.5 L 12 41 L 17 41 L 17 42.5 A 1.50015 1.50015 0 0 0 18.5 44 L 21.5 44 A 1.50015 1.50015 0 0 0 23 42.5 L 23 41.443359 C 23 40.588865 22.799664 39.748554 22.419922 38.986328 A 1.50015 1.50015 0 0 0 22.419922 38.984375 L 21.265625 36.673828 A 1.50015 1.50015 0 0 0 21.263672 36.671875 C 21.090856 36.326865 21.001953 35.943803 21.001953 35.554688 L 21.001953 31 C 21.001953 23.285714 15.361328 19.271484 15.361328 19.271484 A 1.50015 1.50015 0 0 0 14.517578 19 z M 14.5 22.628906 C 15.608678 23.584487 18.001953 25.95466 18.001953 31 L 18.001953 35.554688 C 18.001953 36.40278 18.199166 37.240392 18.578125 38.001953 A 1.50015 1.50015 0 0 0 18.5 38 L 10.5 38 A 1.50015 1.50015 0 0 0 10.423828 38.003906 C 10.800658 37.244067 11.001953 36.407766 11.001953 35.556641 L 11.001953 31 C 11.001953 25.956006 13.390711 23.585279 14.5 22.628906 z M 14.5 28 A 1.5 1.5 0 0 0 14.5 31 A 1.5 1.5 0 0 0 14.5 28 z"/></svg>