<?xml version="1.0" encoding="iso-8859-1"?>
<!-- Generator: Adobe Illustrator 24.2.3, SVG Export Plug-In . SVG Version: 6.00 Build 0)  -->
<svg fill="#FFFFFF" version="1.1" id="Layer_1" xmlns="http://www.w3.org/2000/svg" xmlns:xlink="http://www.w3.org/1999/xlink" x="0px" y="0px"
	 viewBox="0 0 48 48" style="enable-background:new 0 0 48 48;" xml:space="preserve">
<path d="M35,24c-6.075,0-11,4.925-11,11s4.925,11,11,11c6.075,0,11-4.925,11-11S41.075,24,35,24z M40.707,36.707l-5,5
	C35.512,41.902,35.256,42,35,42s-0.512-0.098-0.707-0.293l-5-5c-0.391-0.391-0.391-1.023,0-1.414s1.023-0.391,1.414,0L34,38.586V28
	c0-0.552,0.447-1,1-1s1,0.448,1,1v10.586l3.293-3.293c0.391-0.391,1.023-0.391,1.414,0S41.098,36.316,40.707,36.707z"/>
<path d="M22.634,39H12.5c-1.378,0-2.5-1.122-2.5-2.5V36h12.051C22.025,35.669,22,35.338,22,35c0-2.58,0.761-4.978,2.057-7H12.5
	c-1.378,0-2.5-1.122-2.5-2.5V25h16.696c2.252-1.872,5.146-3,8.304-3c2.166,0,4.204,0.537,6,1.474V22.5c0-1.577-0.67-2.996-1.737-4
	C40.33,17.496,41,16.077,41,14.5v-3C41,8.467,38.533,6,35.5,6h-23C9.467,6,7,8.467,7,11.5v3c0,1.577,0.67,2.996,1.737,4
	C7.67,19.504,7,20.923,7,22.5v3c0,1.577,0.67,2.996,1.737,4C7.67,30.504,7,31.923,7,33.5v3c0,3.033,2.467,5.5,5.5,5.5h11.557
	C23.463,41.073,22.979,40.068,22.634,39z M10,14h28v0.5c0,1.378-1.122,2.5-2.5,2.5h-23c-1.378,0-2.5-1.122-2.5-2.5V14z"/>
</svg>