<?xml version="1.0" encoding="iso-8859-1"?>
<!-- Generator: Adobe Illustrator 22.1.0, SVG Export Plug-In . SVG Version: 6.00 Build 0)  -->
<svg fill="#FFFFFF" version="1.1" id="Layer_1_1_" xmlns="http://www.w3.org/2000/svg" xmlns:xlink="http://www.w3.org/1999/xlink" x="0px" y="0px"
	 viewBox="0 0 48 48" style="enable-background:new 0 0 48 48;" xml:space="preserve">
<path d="M35,24c-6.075,0-11,4.925-11,11c0,6.075,4.925,11,11,11c6.075,0,11-4.925,11-11C46,28.925,41.075,24,35,24z M35,40
	c-5.182,0-7.757-4.313-7.864-4.496c-0.181-0.312-0.181-0.696,0-1.008C27.243,34.313,29.818,30,35,30s7.757,4.313,7.864,4.496
	c0.181,0.312,0.181,0.696,0,1.008C42.757,35.688,40.182,40,35,40z M38,35c0,1.657-1.343,3-3,3s-3-1.343-3-3s1.343-3,3-3
	S38,33.343,38,35z"/>
<path d="M22,35c0-7.18,5.82-13,13-13c1.772,0,3.46,0.357,5,1v-3H28.5c-2.481,0-4.5-2.019-4.5-4.5V4H12.5C10.019,4,8,6.019,8,8.5v31
	c0,2.481,2.019,4.5,4.5,4.5h13.133C23.387,41.664,22,38.496,22,35z"/>
<path d="M28.5,17h10.621L27,4.879V15.5C27,16.327,27.673,17,28.5,17z"/>
</svg>