<?xml version="1.0" encoding="iso-8859-1"?>
<!-- Generator: Adobe Illustrator 25.2.0, SVG Export Plug-In . SVG Version: 6.00 Build 0)  -->
<svg fill="#FFFFFF" version="1.1" id="Layer_1" xmlns="http://www.w3.org/2000/svg" xmlns:xlink="http://www.w3.org/1999/xlink" x="0px" y="0px"
	 viewBox="0 0 48 48" style="enable-background:new 0 0 48 48;" xml:space="preserve">
<line style="fill:none;stroke:#000000;stroke-width:3;stroke-linecap:round;stroke-linejoin:round;stroke-miterlimit:10;" x1="34.5" y1="44.5" x2="34.5" y2="25.5"/>
<path d="M45.607,29.466l-1.728-1.944C43.584,27.19,43.161,27,42.717,27H26c-1.105,0-2,0.895-2,2v3c0,1.105,0.895,2,2,2h16.717
	c0.444,0,0.867-0.19,1.162-0.522l1.728-1.944C46.131,30.944,46.131,30.056,45.607,29.466z"/>
<path d="M28.5,17h10.621L27,4.879V15.5C27,16.327,27.673,17,28.5,17z"/>
<g>
	<path d="M31,36h-5c-1.005,0-1.914-0.385-2.618-1H16.5c-0.829,0-1.5-0.671-1.5-1.5s0.671-1.5,1.5-1.5H22v-3
		c0-0.347,0.058-0.678,0.142-1H16.5c-0.829,0-1.5-0.671-1.5-1.5s0.671-1.5,1.5-1.5h14.551c0.245-1.692,1.691-3,3.449-3
		s3.204,1.308,3.449,3H40v-5H28.5c-2.481,0-4.5-2.019-4.5-4.5V4H12.5C10.019,4,8,6.019,8,8.5v31c0,2.481,2.019,4.5,4.5,4.5H31V36z"
		/>
</g>
</svg>