<?xml version="1.0" encoding="iso-8859-1"?>
<!-- Generator: Adobe Illustrator 22.1.0, SVG Export Plug-In . SVG Version: 6.00 Build 0)  -->
<svg fill="#FFFFFF" version="1.1" id="Layer_1_1_" xmlns="http://www.w3.org/2000/svg" xmlns:xlink="http://www.w3.org/1999/xlink" x="0px" y="0px"
	 viewBox="0 0 48 48" style="enable-background:new 0 0 48 48;" xml:space="preserve">
<path d="M28.5,17h10.621L27,4.879V15.5C27,16.327,27.673,17,28.5,17z"/>
<path style="fill:none;stroke:#000000;stroke-width:3;stroke-linejoin:round;stroke-miterlimit:10;" d="M39.5,36.5h-31
	c-0.552,0-1-0.448-1-1v-11c0-0.552,0.448-1,1-1h31c0.552,0,1,0.448,1,1v11C40.5,36.052,40.052,36.5,39.5,36.5z"/>
<path d="M39.5,36.5h-31c-0.186,0-0.351-0.065-0.5-0.153V39.5c0,2.481,2.019,4.5,4.5,4.5h23c2.481,0,4.5-2.019,4.5-4.5v-3.153
	C39.851,36.435,39.686,36.5,39.5,36.5z"/>
<path d="M8.5,23.5h31c0.186,0,0.351,0.065,0.5,0.153V20H28.5c-2.481,0-4.5-2.019-4.5-4.5V4H12.5C10.019,4,8,6.019,8,8.5v15.153
	C8.149,23.565,8.314,23.5,8.5,23.5z"/>
<path d="M18,26h-2c-0.552,0-1,0.448-1,1v6c0,0.552,0.448,1,1,1s1-0.448,1-1v-1h1c1.654,0,3-1.346,3-3S19.654,26,18,26z M18,30h-1v-2
	h1c0.551,0,1,0.449,1,1S18.551,30,18,30z"/>
<path d="M24,34h-1c-0.552,0-1-0.448-1-1v-6c0-0.552,0.448-1,1-1h1c2.206,0,4,1.794,4,4S26.206,34,24,34z M24,28v4
	c1.103,0,2-0.897,2-2S25.103,28,24,28z"/>
<path d="M33,28c0.552,0,1-0.448,1-1s-0.448-1-1-1h-3c-0.552,0-1,0.448-1,1v6c0,0.552,0.448,1,1,1s1-0.448,1-1v-2h1.5
	c0.552,0,1-0.448,1-1s-0.448-1-1-1H31v-1H33z"/>
</svg>