<?xml version="1.0" encoding="iso-8859-1"?>
<!-- Generator: Adobe Illustrator 22.1.0, SVG Export Plug-In . SVG Version: 6.00 Build 0)  -->
<svg fill="#FFFFFF" version="1.1" id="Layer_1_1_" xmlns="http://www.w3.org/2000/svg" xmlns:xlink="http://www.w3.org/1999/xlink" x="0px" y="0px"
	 viewBox="0 0 48 48" style="enable-background:new 0 0 48 48;" xml:space="preserve">
<path style="fill:none;stroke:#000000;stroke-width:3;stroke-linejoin:round;stroke-miterlimit:10;" d="M39.5,36.5h-31
	c-0.552,0-1-0.448-1-1v-11c0-0.552,0.448-1,1-1h31c0.552,0,1,0.448,1,1v11C40.5,36.052,40.052,36.5,39.5,36.5z"/>
<path d="M39.5,36.5h-31c-0.186,0-0.351-0.065-0.5-0.153V39.5c0,2.481,2.019,4.5,4.5,4.5h23c2.481,0,4.5-2.019,4.5-4.5v-3.153
	C39.851,36.435,39.686,36.5,39.5,36.5z"/>
<path d="M8.5,23.5h31c0.186,0,0.351,0.065,0.5,0.153V20H28.5c-2.481,0-4.5-2.019-4.5-4.5V4H12.5C10.019,4,8,6.019,8,8.5v15.153
	C8.149,23.565,8.314,23.5,8.5,23.5z"/>
<path d="M28.5,17h10.621L27,4.879V15.5C27,16.327,27.673,17,28.5,17z"/>
<path d="M23.423,26.615C23.267,26.243,22.904,26,22.5,26s-0.768,0.243-0.923,0.615l-2.5,6c-0.212,0.51,0.028,1.095,0.538,1.308
	c0.51,0.212,1.096-0.029,1.308-0.538L21.083,33h2.834l0.16,0.385C24.237,33.769,24.609,34,25,34c0.128,0,0.258-0.025,0.384-0.078
	c0.51-0.212,0.75-0.798,0.538-1.308L23.423,26.615z M21.917,31l0.583-1.4l0.583,1.4H21.917z"/>
<path d="M28,34c-0.552,0-1-0.448-1-1v-6c0-0.552,0.448-1,1-1s1,0.448,1,1v6C29,33.552,28.552,34,28,34z"/>
</svg>