<?xml version="1.0" encoding="iso-8859-1"?>
<!-- Generator: Adobe Illustrator 25.1.0, SVG Export Plug-In . SVG Version: 6.00 Build 0)  -->
<svg fill="#FFFFFF" version="1.1" id="Layer_1" xmlns="http://www.w3.org/2000/svg" xmlns:xlink="http://www.w3.org/1999/xlink" x="0px" y="0px"
	 viewBox="0 0 48 48" style="enable-background:new 0 0 48 48;" xml:space="preserve">
<path d="M29.5,46h-2c-4.136,0-7.5-3.364-7.5-7.5s3.364-7.5,7.5-7.5h2c0.829,0,1.5,0.671,1.5,1.5S30.329,34,29.5,34h-2
	c-2.481,0-4.5,2.019-4.5,4.5s2.019,4.5,4.5,4.5h2c0.829,0,1.5,0.671,1.5,1.5S30.329,46,29.5,46z M46,38.5c0-4.136-3.364-7.5-7.5-7.5
	h-2c-0.829,0-1.5,0.671-1.5,1.5s0.671,1.5,1.5,1.5h2c2.481,0,4.5,2.019,4.5,4.5S40.981,43,38.5,43h-2c-0.829,0-1.5,0.671-1.5,1.5
	s0.671,1.5,1.5,1.5h2C42.636,46,46,42.636,46,38.5z M40,38.5c0-0.829-0.671-1.5-1.5-1.5h-11c-0.829,0-1.5,0.671-1.5,1.5
	s0.671,1.5,1.5,1.5h11C39.329,40,40,39.329,40,38.5z"/>
<path d="M28.5,17h10.621L27,4.879V15.5C27,16.327,27.673,17,28.5,17z"/>
<g>
	<path d="M18,38.5c0-5.238,4.262-9.5,9.5-9.5h11c0.51,0,1.011,0.041,1.5,0.119V20H28.5c-2.485,0-4.5-2.015-4.5-4.5V4H12.5
		C10.015,4,8,6.015,8,8.5v31c0,2.485,2.015,4.5,4.5,4.5h7.258C18.651,42.447,18,40.548,18,38.5z"/>
</g>
</svg>