<?xml version="1.0" encoding="iso-8859-1"?>
<!-- Generator: Adobe Illustrator 22.1.0, SVG Export Plug-In . SVG Version: 6.00 Build 0)  -->
<svg fill="#FFFFFF" version="1.1" id="Layer_1_1_" xmlns="http://www.w3.org/2000/svg" xmlns:xlink="http://www.w3.org/1999/xlink" x="0px" y="0px"
	 viewBox="0 0 48 48" style="enable-background:new 0 0 48 48;" xml:space="preserve">
<path d="M39.5,18H30V8.5C30,6.015,27.985,4,25.5,4h-17C6.015,4,4,6.015,4,8.5v17C4,27.985,6.015,30,8.5,30H18v9.5
	c0,2.485,2.015,4.5,4.5,4.5h17c2.485,0,4.5-2.015,4.5-4.5v-17C44,20.015,41.985,18,39.5,18z M21,19.833
	C20.999,20.477,20.477,21,19.833,21h-3.299c-0.315,0-0.611-0.127-0.826-0.342c-0.106-0.106-0.193-0.234-0.252-0.378
	c-0.181-0.436-0.081-0.937,0.253-1.271l0.589-0.589l-4.858-4.858c-0.586-0.586-0.586-1.535,0-2.121s1.535-0.586,2.121,0l4.858,4.858
	l0.589-0.589c0.334-0.334,0.835-0.433,1.271-0.253c0.437,0.181,0.72,0.607,0.721,1.078C21,16.535,21,19.833,21,19.833z M24,25.5
	c-0.828,0-1.5-0.672-1.5-1.5s0.672-1.5,1.5-1.5s1.5,0.672,1.5,1.5S24.828,25.5,24,25.5z M20.5,29c-0.828,0-1.5-0.672-1.5-1.5
	s0.672-1.5,1.5-1.5s1.5,0.672,1.5,1.5S21.328,29,20.5,29z M26,20.5c0-0.828,0.672-1.5,1.5-1.5s1.5,0.672,1.5,1.5S28.328,22,27.5,22
	S26,21.328,26,20.5z M36.56,36.56c-0.293,0.293-0.677,0.439-1.061,0.439s-0.768-0.146-1.061-0.439l-4.857-4.857l-0.589,0.589
	c-0.334,0.334-0.835,0.433-1.271,0.253c-0.437-0.181-0.72-0.607-0.721-1.078v-3.299C27.001,27.523,27.523,27,28.167,27h3.299
	c0.315,0,0.611,0.127,0.826,0.342c0.106,0.106,0.193,0.234,0.252,0.378c0.181,0.436,0.081,0.937-0.253,1.271l-0.589,0.589
	l4.857,4.857C37.146,35.024,37.146,35.974,36.56,36.56z"/>
</svg>