<?xml version="1.0" encoding="iso-8859-1"?>
<!-- Generator: Adobe Illustrator 24.3.0, SVG Export Plug-In . SVG Version: 6.00 Build 0)  -->
<svg fill="#FFFFFF" version="1.1" id="Layer_1" xmlns="http://www.w3.org/2000/svg" xmlns:xlink="http://www.w3.org/1999/xlink" x="0px" y="0px"
	 viewBox="0 0 48 48" style="enable-background:new 0 0 48 48;" xml:space="preserve">
<path d="M44.68,25.32c-0.859-0.86-1.987-1.322-3.181-1.32c-0.274,0.001-0.552,0.025-0.831,0.076
	c-0.884,0.159-1.729,0.62-2.442,1.334L26.427,37.209c-0.357,0.357-0.62,0.802-0.76,1.285c0,0-1.569,5.48-1.569,5.48
	c-0.072,0.19-0.105,0.391-0.098,0.592c0.013,0.363,0.156,0.722,0.434,1c0.277,0.277,0.634,0.42,0.996,0.434
	c0.201,0.007,0.404-0.025,0.595-0.098c0,0,5.48-1.569,5.48-1.569c0.483-0.14,0.927-0.402,1.285-0.76l11.799-11.799
	c0.714-0.713,1.175-1.558,1.334-2.442c0.05-0.279,0.075-0.557,0.076-0.831C46.002,27.307,45.541,26.179,44.68,25.32z"/>
<g>
	<path d="M35.161,25.646C34.719,25.249,34.14,25,33.5,25h-4c-1.378,0-2.5,1.121-2.5,2.5v4c0,0.64,0.249,1.219,0.646,1.662
		L35.161,25.646z"/>
	<path d="M23.442,39H17.5c-0.276,0-0.5-0.225-0.5-0.5v-28C17,9.672,16.329,9,15.5,9S14,9.672,14,10.5v28c0,1.93,1.57,3.5,3.5,3.5
		h5.102C22.803,41.245,23.078,40.272,23.442,39z"/>
</g>
<line style="fill:none;stroke:#000000;stroke-width:3;stroke-linecap:round;stroke-linejoin:round;stroke-miterlimit:10;" x1="15.5" y1="18.5" x2="28.5" y2="18.5"/>
<line style="fill:none;stroke:#000000;stroke-width:3;stroke-linecap:round;stroke-linejoin:round;stroke-miterlimit:10;" x1="15.5" y1="29.5" x2="28.5" y2="29.5"/>
<path d="M33.5,23h-4c-1.378,0-2.5-1.121-2.5-2.5v-4c0-1.379,1.122-2.5,2.5-2.5h4c1.378,0,2.5,1.121,2.5,2.5v4
	C36,21.879,34.878,23,33.5,23z"/>
<path d="M17.5,12h-4c-1.378,0-2.5-1.121-2.5-2.5v-4C11,4.121,12.122,3,13.5,3h4C18.878,3,20,4.121,20,5.5v4
	C20,10.879,18.878,12,17.5,12z"/>
</svg>