<?xml version="1.0" encoding="iso-8859-1"?>
<!-- Generator: Adobe Illustrator 24.3.0, SVG Export Plug-In . SVG Version: 6.00 Build 0)  -->
<svg fill="#FFFFFF" version="1.1" id="Layer_1" xmlns="http://www.w3.org/2000/svg" xmlns:xlink="http://www.w3.org/1999/xlink" x="0px" y="0px"
	 viewBox="0 0 48 48" style="enable-background:new 0 0 48 48;" xml:space="preserve">
<path d="M35,24c-6.075,0-11,4.925-11,11c0,6.075,4.925,11,11,11s11-4.925,11-11C46,28.925,41.075,24,35,24z M42,36h-6v6
	c0,0.552-0.448,1-1,1s-1-0.448-1-1v-6h-6c-0.552,0-1-0.448-1-1s0.448-1,1-1h6v-6c0-0.552,0.448-1,1-1s1,0.448,1,1v6h6
	c0.552,0,1,0.448,1,1S42.552,36,42,36z"/>
<g>
	<rect x="7" y="19" width="15.5" height="10"/>
	<path d="M25.5,16H41v-4.5C41,8.467,38.532,6,35.5,6h-10V16z"/>
	<path d="M22.5,16V6h-10C9.468,6,7,8.467,7,11.5V16H22.5z"/>
</g>
<g>
	<path d="M35,22c2.166,0,4.204,0.537,6,1.474V19H25.5v7.146C27.873,23.601,31.246,22,35,22z"/>
	<path d="M22,35c0-1.034,0.134-2.035,0.362-3H7v4.5c0,3.033,2.468,5.5,5.5,5.5h10v-3.463C22.182,37.411,22,36.228,22,35z"/>
</g>
</svg>