<?xml version="1.0" encoding="iso-8859-1"?>
<!-- Generator: Adobe Illustrator 24.3.0, SVG Export Plug-In . SVG Version: 6.00 Build 0)  -->
<svg fill="#FFFFFF" version="1.1" id="Layer_1" xmlns="http://www.w3.org/2000/svg" xmlns:xlink="http://www.w3.org/1999/xlink" x="0px" y="0px"
	 viewBox="0 0 48 48" style="enable-background:new 0 0 48 48;" xml:space="preserve">
<line style="fill:none;stroke:#000000;stroke-width:3;stroke-linecap:round;stroke-linejoin:round;stroke-miterlimit:10;" x1="16.5" y1="18.5" x2="24.5" y2="18.5"/>
<line style="fill:none;stroke:#000000;stroke-width:3;stroke-linecap:round;stroke-linejoin:round;stroke-miterlimit:10;" x1="16.5" y1="29.5" x2="29.5" y2="29.5"/>
<path d="M18.5,12h-4c-1.378,0-2.5-1.121-2.5-2.5v-4C12,4.121,13.122,3,14.5,3h4C19.878,3,21,4.121,21,5.5v4
	C21,10.879,19.878,12,18.5,12z"/>
<path d="M34.5,34h-4c-1.378,0-2.5-1.121-2.5-2.5v-4c0-1.379,1.122-2.5,2.5-2.5h4c1.378,0,2.5,1.121,2.5,2.5v4
	C37,32.879,35.878,34,34.5,34z"/>
<path d="M34.5,45h-4c-1.378,0-2.5-1.121-2.5-2.5v-4c0-1.379,1.122-2.5,2.5-2.5h4c1.378,0,2.5,1.121,2.5,2.5v4
	C37,43.879,35.878,45,34.5,45z"/>
<path style="fill:none;stroke:#000000;stroke-width:3;stroke-linecap:round;stroke-linejoin:round;stroke-miterlimit:10;" d="
	M16.5,10.5v28c0,1.105,0.895,2,2,2H29"/>
<line style="fill:none;stroke:#000000;stroke-width:3;stroke-linecap:round;stroke-linejoin:round;stroke-miterlimit:10;" x1="32.5" y1="15.5" x2="32.5" y2="21.5"/>
<line style="fill:none;stroke:#000000;stroke-width:3;stroke-linecap:round;stroke-linejoin:round;stroke-miterlimit:10;" x1="29.5" y1="18.5" x2="35.5" y2="18.5"/>
</svg>