<?xml version="1.0" encoding="iso-8859-1"?>
<!-- Generator: Adobe Illustrator 22.1.0, SVG Export Plug-In . SVG Version: 6.00 Build 0)  -->
<svg fill="#FFFFFF" version="1.1" id="Layer_1_1_" xmlns="http://www.w3.org/2000/svg" xmlns:xlink="http://www.w3.org/1999/xlink" x="0px" y="0px"
	 viewBox="0 0 48 48" style="enable-background:new 0 0 48 48;" xml:space="preserve">
<path d="M28.5,17h10.621L27,4.879V15.5C27,16.327,27.673,17,28.5,17z"/>
<path d="M28.5,20c-2.481,0-4.5-2.019-4.5-4.5V4H12.5C10.019,4,8,6.019,8,8.5v31c0,2.481,2.019,4.5,4.5,4.5h23
	c2.481,0,4.5-2.019,4.5-4.5V20H28.5z M30.223,31.314l-10.001,5.5c-0.224,0.124-0.474,0.185-0.723,0.185
	c-0.265,0-0.53-0.07-0.764-0.209C18.282,36.523,18,36.028,18,35.5v-11c0-0.528,0.282-1.022,0.737-1.292
	c0.443-0.262,1.028-0.272,1.485-0.023l10,5.5C30.702,28.95,31,29.453,31,30S30.702,31.05,30.223,31.314z"/>
</svg>