<?xml version="1.0" encoding="iso-8859-1"?>
<!-- Generator: Adobe Illustrator 25.2.0, SVG Export Plug-In . SVG Version: 6.00 Build 0)  -->
<svg fill="#FFFFFF" version="1.1" id="Layer_1" xmlns="http://www.w3.org/2000/svg" xmlns:xlink="http://www.w3.org/1999/xlink" x="0px" y="0px"
	 viewBox="0 0 48 48" style="enable-background:new 0 0 48 48;" xml:space="preserve">
<g>
	<path d="M19,34c-0.552,0-1-0.448-1-1v-3.238l-0.732,0.878c-0.38,0.456-1.156,0.456-1.536,0L15,29.762V33c0,0.552-0.448,1-1,1
		s-1-0.448-1-1v-6c0-0.421,0.264-0.797,0.66-0.94c0.396-0.143,0.838-0.023,1.108,0.3l1.732,2.078l1.732-2.078
		c0.27-0.324,0.714-0.443,1.108-0.3C19.736,26.203,20,26.579,20,27v6C20,33.552,19.552,34,19,34z"/>
</g>
<g>
	<path d="M22,34c-0.552,0-1-0.448-1-1v-6c0-0.552,0.448-1,1-1s1,0.448,1,1v6C23,33.552,22.552,34,22,34z"/>
	<path d="M26,34c-0.287,0-0.571-0.123-0.769-0.36L22.198,30l3.034-3.64c0.353-0.423,0.984-0.482,1.408-0.128
		c0.424,0.354,0.481,0.984,0.128,1.408L24.802,30l1.966,2.36c0.354,0.424,0.296,1.055-0.128,1.408C26.453,33.924,26.226,34,26,34z"
		/>
</g>
<g>
	<path d="M31.5,34c-0.404,0-0.768-0.243-0.923-0.615l-2.5-6c-0.212-0.51,0.028-1.095,0.538-1.308
		c0.511-0.213,1.096,0.029,1.308,0.538L31.5,30.4l1.577-3.785c0.211-0.509,0.796-0.751,1.308-0.538
		c0.51,0.212,0.75,0.798,0.538,1.308l-2.5,6C32.267,33.757,31.904,34,31.5,34z"/>
</g>
<path d="M28.5,17h10.621L27,4.879V15.5C27,16.327,27.673,17,28.5,17z"/>
<path style="fill:none;stroke:#000000;stroke-width:3;stroke-linejoin:round;stroke-miterlimit:10;" d="M39.5,36.5h-31
	c-0.552,0-1-0.448-1-1v-11c0-0.552,0.448-1,1-1h31c0.552,0,1,0.448,1,1v11C40.5,36.052,40.052,36.5,39.5,36.5z"/>
<path d="M39.5,36.5h-31c-0.186,0-0.351-0.065-0.5-0.153V39.5c0,2.481,2.019,4.5,4.5,4.5h23c2.481,0,4.5-2.019,4.5-4.5v-3.153
	C39.851,36.435,39.686,36.5,39.5,36.5z"/>
<path d="M8.5,23.5h31c0.186,0,0.351,0.065,0.5,0.153V20H28.5c-2.481,0-4.5-2.019-4.5-4.5V4H12.5C10.019,4,8,6.019,8,8.5v15.153
	C8.149,23.565,8.314,23.5,8.5,23.5z"/>
</svg>