<?xml version="1.0" encoding="iso-8859-1"?>
<!-- Generator: Adobe Illustrator 25.1.0, SVG Export Plug-In . SVG Version: 6.00 Build 0)  -->
<svg fill="#FFFFFF" version="1.1" id="Layer_1" xmlns="http://www.w3.org/2000/svg" xmlns:xlink="http://www.w3.org/1999/xlink" x="0px" y="0px"
	 viewBox="0 0 48 48" style="enable-background:new 0 0 48 48;" xml:space="preserve">
<path d="M20.778,27.222c-4.296-4.296-11.261-4.296-15.556,0s-4.296,11.261,0,15.556s11.261,4.296,15.556,0
	S25.074,31.518,20.778,27.222z M8.757,39.243c-0.781-0.781-0.781-2.047,0-2.828c0.781-0.781,2.047-0.781,2.828,0
	c0.781,0.781,0.781,2.047,0,2.828C10.805,40.024,9.538,40.024,8.757,39.243z M15.017,39.349c-0.238-0.025-0.448-0.131-0.605-0.287
	c-0.206-0.206-0.32-0.499-0.288-0.81l0.025-0.202c0.01-0.073,0.022-0.145,0.022-0.221c0-2.141-1.862-4.001-3.999-4.001
	c-0.077,0-0.149,0.013-0.223,0.022l-0.202,0.025c-0.548,0.057-1.041-0.341-1.097-0.893c-0.056-0.549,0.344-1.04,0.893-1.096
	l0.138-0.018c0.162-0.021,0.324-0.041,0.492-0.04c1.601,0,3.107,0.624,4.241,1.757c1.133,1.133,1.757,2.64,1.757,4.242
	c0.001,0.166-0.019,0.328-0.04,0.49l-0.018,0.138C16.057,39.005,15.566,39.405,15.017,39.349z M19.017,39.773
	c-0.237-0.024-0.447-0.131-0.603-0.287c-0.206-0.206-0.321-0.499-0.288-0.811c0.029-0.279,0.045-0.562,0.046-0.848
	c0.001-2.136-0.832-4.145-2.343-5.656c-1.511-1.511-3.52-2.344-5.657-2.343c-0.285,0.001-0.568,0.017-0.847,0.046
	c-0.547,0.057-1.042-0.342-1.098-0.891c-0.058-0.55,0.342-1.041,0.891-1.098c0.347-0.036,0.697-0.056,1.052-0.057
	c2.672,0,5.184,1.041,7.072,2.929c1.889,1.889,2.929,4.4,2.929,7.071c0,0.356-0.02,0.707-0.056,1.053
	C20.058,39.431,19.567,39.831,19.017,39.773z"/>
<path d="M28.5,17h10.621L27,4.879V15.5C27,16.327,27.673,17,28.5,17z"/>
<path d="M28.5,20c-2.481,0-4.5-2.019-4.5-4.5V4H12.5C10.019,4,8,6.019,8,8.5v14.503C9.54,22.359,11.229,22,13,22
	c3.144,0,6.029,1.122,8.28,2.986h9.229L30.713,25c0.732,0.099,1.296,0.727,1.296,1.486c0,0.829-0.672,1.514-1.5,1.514h-6.58
	c0.783,1.215,1.364,2.554,1.708,4h4.872l0.204,0.014c0.732,0.099,1.296,0.727,1.296,1.486c0,0.828-0.672,1.5-1.5,1.5H26
	c0,3.493-1.392,6.662-3.641,9H35.5c2.481,0,4.5-2.019,4.5-4.5V20H28.5z"/>
</svg>