<?xml version="1.0" encoding="iso-8859-1"?>
<!-- Generator: Adobe Illustrator 25.1.0, SVG Export Plug-In . SVG Version: 6.00 Build 0)  -->
<svg fill="#FFFFFF" version="1.1" id="Layer_1" xmlns="http://www.w3.org/2000/svg" xmlns:xlink="http://www.w3.org/1999/xlink" x="0px" y="0px"
	 viewBox="0 0 48 48" style="enable-background:new 0 0 48 48;" xml:space="preserve">
<g>
	<path d="M26,28h-4c-0.552,0-1-0.448-1-1s0.448-1,1-1h4c0.552,0,1,0.448,1,1S26.552,28,26,28z"/>
	<path d="M24,34c-0.552,0-1-0.448-1-1v-6c0-0.552,0.448-1,1-1s1,0.448,1,1v6C25,33.552,24.552,34,24,34z"/>
</g>
<g>
	<path d="M29,34c-0.552,0-1-0.448-1-1v-6c0-0.552,0.448-1,1-1h3c0.552,0,1,0.448,1,1s-0.448,1-1,1h-2v5C30,33.552,29.552,34,29,34z"
		/>
	<path d="M31.5,31H29c-0.552,0-1-0.448-1-1s0.448-1,1-1h2.5c0.552,0,1,0.448,1,1S32.052,31,31.5,31z"/>
</g>
<g>
	<path d="M17.5,34c-1.93,0-3.5-1.794-3.5-4s1.57-4,3.5-4s3.5,1.794,3.5,4S19.43,34,17.5,34z M17.5,28c-0.813,0-1.5,0.916-1.5,2
		s0.687,2,1.5,2s1.5-0.916,1.5-2S18.313,28,17.5,28z"/>
</g>
<g>
	<path d="M28.5,17h10.621L27,4.879V15.5C27,16.327,27.673,17,28.5,17z"/>
	<path style="fill:none;stroke:#000000;stroke-width:3;stroke-linejoin:round;stroke-miterlimit:10;" d="M39.5,36.5h-31
		c-0.552,0-1-0.448-1-1v-11c0-0.552,0.448-1,1-1h31c0.552,0,1,0.448,1,1v11C40.5,36.052,40.052,36.5,39.5,36.5z"/>
	<path d="M39.5,36.5h-31c-0.186,0-0.351-0.065-0.5-0.153V39.5c0,2.481,2.019,4.5,4.5,4.5h23c2.481,0,4.5-2.019,4.5-4.5v-3.153
		C39.851,36.435,39.686,36.5,39.5,36.5z"/>
	<path d="M8.5,23.5h31c0.186,0,0.351,0.065,0.5,0.153V20H28.5c-2.481,0-4.5-2.019-4.5-4.5V4H12.5C10.019,4,8,6.019,8,8.5v15.153
		C8.149,23.565,8.314,23.5,8.5,23.5z"/>
</g>
</svg>