<?xml version="1.0" encoding="iso-8859-1"?>
<!-- Generator: Adobe Illustrator 25.2.0, SVG Export Plug-In . SVG Version: 6.00 Build 0)  -->
<svg fill="#FFFFFF" version="1.1" id="Layer_1" xmlns="http://www.w3.org/2000/svg" xmlns:xlink="http://www.w3.org/1999/xlink" x="0px" y="0px"
	 viewBox="0 0 48 48" style="enable-background:new 0 0 48 48;" xml:space="preserve">
<path d="M34.703,24C28.162,24,24,28.757,24,33.513C24,35.654,25,38,27,38c1.549,0,3-1,4-1c5,0,1.155,9,7.911,9
	C41.761,46,46,41.536,46,35.297S40.942,24,34.703,24z M40.013,28.014C41.111,28.014,42,28.903,42,30
	c0,1.097-0.889,1.987-1.987,1.987S38.027,31.097,38.027,30C38.027,28.903,38.916,28.014,40.013,28.014z M34,30c-1.105,0-2-0.895-2-2
	c0-1.105,0.895-2,2-2c1.105,0,2,0.895,2,2C36,29.105,35.105,30,34,30z M39.007,43c-1.101,0-1.993-0.892-1.993-1.993
	c0-1.101,0.892-1.993,1.993-1.993S41,39.906,41,41.007C41,42.108,40.108,43,39.007,43z M41.993,37.987
	c-1.101,0-1.993-0.892-1.993-1.993C40,34.892,40.892,34,41.993,34s1.993,0.892,1.993,1.993
	C43.987,37.094,43.094,37.987,41.993,37.987z"/>
<path d="M28.5,17h10.621L27,4.879V15.5C27,16.327,27.673,17,28.5,17z"/>
<g>
	<path d="M32.231,41.421C31.702,39,31.497,39,31,39c-0.127,0.015-0.561,0.176-0.878,0.294C29.273,39.608,28.218,40,27,40
		c-2.774,0-4.426-2.332-4.872-5H16.5c-0.829,0-1.5-0.671-1.5-1.5s0.671-1.5,1.5-1.5h5.625c0.205-1.385,0.686-2.746,1.423-4H16.5
		c-0.829,0-1.5-0.671-1.5-1.5s0.671-1.5,1.5-1.5h9.573c2.14-1.814,5.058-3,8.629-3c1.883,0,3.673,0.399,5.297,1.108V20H28.5
		c-2.481,0-4.5-2.019-4.5-4.5V4H12.5C10.019,4,8,6.019,8,8.5v31c0,2.481,2.019,4.5,4.5,4.5h20.45
		C32.598,43.096,32.397,42.18,32.231,41.421z"/>
</g>
</svg>