<?xml version="1.0" encoding="iso-8859-1"?>
<!-- Generator: Adobe Illustrator 25.2.0, SVG Export Plug-In . SVG Version: 6.00 Build 0)  -->
<svg fill="#FFFFFF" version="1.1" id="Layer_1" xmlns="http://www.w3.org/2000/svg" xmlns:xlink="http://www.w3.org/1999/xlink" x="0px" y="0px"
	 viewBox="0 0 48 48" style="enable-background:new 0 0 48 48;" xml:space="preserve">
<path d="M45.561,31.626c-0.586-0.586-1.536-0.586-2.121,0l-0.354,0.354l-7.071-7.071l0.354-0.354c0.586-0.586,0.586-1.535,0-2.121
	s-1.536-0.586-2.121,0l-0.354,0.354l-5.657,5.657l-0.354,0.354c-0.586,0.586-0.586,1.535,0,2.121s1.536,0.586,2.121,0l0.354-0.354
	l2.121,2.121l-9.899,9.899c-0.781,0.781-0.781,2.047,0,2.828s2.047,0.781,2.828,0l9.899-9.899l2.121,2.121l-0.354,0.354
	c-0.586,0.586-0.586,1.535,0,2.121s1.536,0.586,2.121,0l3.891-3.889l2.121-2.121l0,0l0.354-0.354
	C46.146,33.161,46.146,32.212,45.561,31.626z"/>
<path d="M28.5,17h10.621L27,4.879V15.5C27,16.327,27.673,17,28.5,17z"/>
<path d="M32.833,21.02C33.418,20.434,34.199,20.067,35,20h-6.5c-2.481,0-4.5-2.019-4.5-4.5V4H12.5C10.019,4,8,6.019,8,8.5v31
	c0,2.481,2.019,4.5,4.5,4.5h7.494c0-1.069,0.417-2.073,1.172-2.828l7.812-7.812c-0.971-0.008-1.84-0.356-2.509-1.024
	c-0.662-0.662-1.026-1.541-1.026-2.476s0.364-1.813,1.025-2.475L32.833,21.02z"/>
</svg>