<?xml version="1.0" encoding="iso-8859-1"?>
<!-- Generator: Adobe Illustrator 24.3.0, SVG Export Plug-In . SVG Version: 6.00 Build 0)  -->
<svg fill="#FFFFFF" version="1.1" xmlns="http://www.w3.org/2000/svg" xmlns:xlink="http://www.w3.org/1999/xlink" x="0px" y="0px"
	 viewBox="0 0 48 48" style="enable-background:new 0 0 48 48;" xml:space="preserve">
<g id="&#x421;&#x43B;&#x43E;&#x439;_1">
</g>
<g id="&#x421;&#x43B;&#x43E;&#x439;_2">
</g>
<g id="&#x421;&#x43B;&#x43E;&#x439;_3">
</g>
<g id="&#x421;&#x43B;&#x43E;&#x439;_4">
</g>
<g id="&#x421;&#x43B;&#x43E;&#x439;_5">
</g>
<g id="&#x421;&#x43B;&#x43E;&#x439;_6">
	<path d="M25.746,39.897c0.213-0.749,0.618-1.436,1.17-1.986l12.013-12.013c1.223-1.223,2.852-1.897,4.586-1.897
		c0.163,0,0.324,0.012,0.485,0.024V17.5c0-2.481-2.019-4.5-4.5-4.5H24.043l-4.471-3.726C18.586,8.452,17.335,8,16.052,8H8.5
		C6.019,8,4,10.019,4,12.5v23C4,37.981,6.019,40,8.5,40h17.217L25.746,39.897z"/>
	<path d="M46.686,27.313c-1.749-1.749-4.596-1.747-6.343,0L28.327,39.329c-0.311,0.31-0.538,0.696-0.658,1.118l-1.611,5.641
		c-0.149,0.523-0.004,1.088,0.382,1.473C26.725,47.846,27.107,48,27.5,48c0.138,0,0.276-0.019,0.412-0.058l5.643-1.612
		c0.424-0.121,0.811-0.35,1.115-0.657l12.016-12.015C47.533,32.811,48,31.684,48,30.485S47.533,28.16,46.686,27.313z"/>
</g>
</svg>