<?xml version="1.0" encoding="iso-8859-1"?>
<!-- Generator: Adobe Illustrator 22.1.0, SVG Export Plug-In . SVG Version: 6.00 Build 0)  -->
<svg fill="#FFFFFF" version="1.1" id="Layer_1" xmlns="http://www.w3.org/2000/svg" xmlns:xlink="http://www.w3.org/1999/xlink" x="0px" y="0px"
	 viewBox="0 0 48 48" style="enable-background:new 0 0 48 48;" xml:space="preserve">
<circle cx="23" cy="25" r="4"/>
<path d="M39.5,13H24.043l-4.471-3.726C18.586,8.452,17.335,8,16.052,8H8.5C6.019,8,4,10.019,4,12.5v23C4,37.981,6.019,40,8.5,40h31
	c2.481,0,4.5-2.019,4.5-4.5v-18C44,15.019,41.981,13,39.5,13z M32.561,34.561C32.268,34.854,31.884,35,31.5,35
	s-0.768-0.146-1.061-0.439l-3.671-3.671C25.679,31.589,24.388,32,23,32c-3.86,0-7-3.141-7-7s3.14-7,7-7s7,3.141,7,7
	c0,1.388-0.411,2.679-1.11,3.768l3.671,3.671C33.146,33.025,33.146,33.975,32.561,34.561z"/>
</svg>