<?xml version="1.0" encoding="iso-8859-1"?>
<!-- Generator: Adobe Illustrator 24.3.0, SVG Export Plug-In . SVG Version: 6.00 Build 0)  -->
<svg fill="#FFFFFF" version="1.1" xmlns="http://www.w3.org/2000/svg" xmlns:xlink="http://www.w3.org/1999/xlink" x="0px" y="0px"
	 viewBox="0 0 48 48" style="enable-background:new 0 0 48 48;" xml:space="preserve">
<g id="&#x421;&#x43B;&#x43E;&#x439;_1">
</g>
<g id="&#x421;&#x43B;&#x43E;&#x439;_2">
</g>
<g id="&#x421;&#x43B;&#x43E;&#x439;_3">
</g>
<g id="&#x421;&#x43B;&#x43E;&#x439;_4">
</g>
<g id="&#x421;&#x43B;&#x43E;&#x439;_5">
</g>
<g id="&#x421;&#x43B;&#x43E;&#x439;_6">
	<g>
		<g>
			<g>
				<path d="M27.5,33.5h-7c-0.552,0-1,0.448-1,1V40h9v-5.5C28.5,33.948,28.052,33.5,27.5,33.5z"/>
				<path d="M39.5,13H24.043l-4.471-3.726C18.586,8.452,17.335,8,16.052,8H8.5C6.019,8,4,10.019,4,12.5v23C4,37.981,6.019,40,8.5,40
					h4v-9.5c0-2.209,1.791-4,4-4h15c2.209,0,4,1.791,4,4V40h4c2.481,0,4.5-2.019,4.5-4.5v-18C44,15.019,41.981,13,39.5,13z"/>
			</g>
			<path d="M33.5,45h-3c-1.93,0-3.5-1.57-3.5-3.5V35h-6v6.5c0,1.93-1.57,3.5-3.5,3.5h-3c-1.93,0-3.5-1.57-3.5-3.5v-11
				c0-3.033,2.468-5.5,5.5-5.5h15c3.032,0,5.5,2.467,5.5,5.5v11C37,43.43,35.43,45,33.5,45z M20.5,32h7c1.379,0,2.5,1.122,2.5,2.5v7
				c0,0.276,0.225,0.5,0.5,0.5h3c0.275,0,0.5-0.224,0.5-0.5v-11c0-1.378-1.121-2.5-2.5-2.5h-15c-1.379,0-2.5,1.122-2.5,2.5v11
				c0,0.276,0.225,0.5,0.5,0.5h3c0.275,0,0.5-0.224,0.5-0.5v-7C18,33.122,19.121,32,20.5,32z"/>
		</g>
	</g>
</g>
</svg>