<?xml version="1.0" encoding="iso-8859-1"?>
<!-- Generator: Adobe Illustrator 24.3.0, SVG Export Plug-In . SVG Version: 6.00 Build 0)  -->
<svg fill="#FFFFFF" version="1.1" xmlns="http://www.w3.org/2000/svg" xmlns:xlink="http://www.w3.org/1999/xlink" x="0px" y="0px"
	 viewBox="0 0 48 48" style="enable-background:new 0 0 48 48;" xml:space="preserve">
<g id="&#x421;&#x43B;&#x43E;&#x439;_1">
</g>
<g id="&#x421;&#x43B;&#x43E;&#x439;_2">
</g>
<g id="&#x421;&#x43B;&#x43E;&#x439;_3">
</g>
<g id="&#x421;&#x43B;&#x43E;&#x439;_4">
</g>
<g id="&#x421;&#x43B;&#x43E;&#x439;_5">
</g>
<g id="&#x421;&#x43B;&#x43E;&#x439;_6">
	<path d="M39.5,13H24.043l-4.471-3.726C18.586,8.452,17.335,8,16.052,8H8.5C6.019,8,4,10.019,4,12.5v23C4,37.981,6.019,40,8.5,40h31
		c2.481,0,4.5-2.019,4.5-4.5v-18C44,15.019,41.981,13,39.5,13z M24,18c2.209,0,4,1.791,4,4c0,2.209-1.791,4-4,4s-4-1.791-4-4
		C20,19.791,21.791,18,24,18z M31,30.752C31,32.975,28.163,35,24,35s-7-2.025-7-4.248v-1.304c0-0.8,0.648-1.448,1.448-1.448h11.104
		c0.8,0,1.448,0.648,1.448,1.448V30.752z"/>
</g>
</svg>