<?xml version="1.0" encoding="iso-8859-1"?>
<!-- Generator: Adobe Illustrator 24.3.0, SVG Export Plug-In . SVG Version: 6.00 Build 0)  -->
<svg fill="#FFFFFF" version="1.1" xmlns="http://www.w3.org/2000/svg" xmlns:xlink="http://www.w3.org/1999/xlink" x="0px" y="0px"
	 viewBox="0 0 48 48" style="enable-background:new 0 0 48 48;" xml:space="preserve">
<g id="&#x421;&#x43B;&#x43E;&#x439;_1">
</g>
<g id="&#x421;&#x43B;&#x43E;&#x439;_2">
</g>
<g id="&#x421;&#x43B;&#x43E;&#x439;_3">
</g>
<g id="&#x421;&#x43B;&#x43E;&#x439;_4">
</g>
<g id="&#x421;&#x43B;&#x43E;&#x439;_5">
</g>
<g id="&#x421;&#x43B;&#x43E;&#x439;_6">
	<g>
		<path d="M23,25v-5h-3v12h8v-5h-3C23.897,27,23,26.103,23,25z"/>
		<path d="M39.5,13H24.043l-4.471-3.726C18.586,8.452,17.335,8,16.052,8H8.5C6.019,8,4,10.019,4,12.5v23C4,37.981,6.019,40,8.5,40
			h31c2.481,0,4.5-2.019,4.5-4.5v-18C44,15.019,41.981,13,39.5,13z M30,33c0,0.552-0.447,1-1,1H19c-0.553,0-1-0.448-1-1V19
			c0-0.552,0.447-1,1-1h5c0.297,0,0.578,0.132,0.769,0.36l5,6C29.918,24.54,30,24.766,30,25V33z"/>
	</g>
</g>
</svg>