<?xml version="1.0" encoding="iso-8859-1"?>
<!-- Generator: Adobe Illustrator 22.1.0, SVG Export Plug-In . SVG Version: 6.00 Build 0)  -->
<svg fill="#FFFFFF" version="1.1" id="Layer_1" xmlns="http://www.w3.org/2000/svg" xmlns:xlink="http://www.w3.org/1999/xlink" x="0px" y="0px"
	 viewBox="0 0 48 48" style="enable-background:new 0 0 48 48;" xml:space="preserve">
<path d="M39.5,13H24.043l-4.471-3.726C18.586,8.452,17.335,8,16.052,8H8.5C6.019,8,4,10.019,4,12.5v23c0,2.312,1.759,4.2,4.006,4.45
	l13.148-12.802c1.6-1.532,4.091-1.532,5.683-0.008l13.188,12.806C42.257,39.683,44,37.802,44,35.5v-18C44,15.019,41.981,13,39.5,13z
	 M29.5,24c-1.381,0-2.5-1.119-2.5-2.5c0-1.381,1.119-2.5,2.5-2.5s2.5,1.119,2.5,2.5C32,22.881,30.881,24,29.5,24z"/>
<path d="M23.239,29.307L12.257,40h23.516L24.754,29.3C24.335,28.897,23.665,28.899,23.239,29.307z"/>
</svg>