<?xml version="1.0" encoding="iso-8859-1"?>
<!-- Generator: Adobe Illustrator 25.0.0, SVG Export Plug-In . SVG Version: 6.00 Build 0)  -->
<svg fill="#FFFFFF" version="1.1" id="Layer_1" xmlns="http://www.w3.org/2000/svg" xmlns:xlink="http://www.w3.org/1999/xlink" x="0px" y="0px"
	 viewBox="0 0 48 48" style="enable-background:new 0 0 48 48;" xml:space="preserve">
<path style="fill:none;stroke:#000000;stroke-width:3;stroke-linejoin:round;stroke-miterlimit:10;" d="M41.5,28.5h-11
	c-1.657,0-3,1.343-3,3v13l6-4h8c1.657,0,3-1.343,3-3v-6C44.5,29.843,43.157,28.5,41.5,28.5z"/>
<path d="M16.052,18c0.584,0,1.151-0.206,1.601-0.58l5.847-4.873l-3.928-3.273C18.586,8.453,17.336,8,16.052,8H8.5
	C6.019,8,4,10.019,4,12.5V18H16.052z"/>
<path d="M27.5,31.5c0-1.657,1.343-3,3-3h11c1.045,0,1.963,0.535,2.5,1.345V17.5c0-2.481-2.019-4.5-4.5-4.5H27.644l-8.071,6.725
	C18.586,20.547,17.336,21,16.052,21H4v14.5C4,37.981,6.019,40,8.5,40h19V31.5z"/>
</svg>