<?xml version="1.0" encoding="iso-8859-1"?>
<!-- Generator: Adobe Illustrator 24.3.0, SVG Export Plug-In . SVG Version: 6.00 Build 0)  -->
<svg fill="#FFFFFF" version="1.1" xmlns="http://www.w3.org/2000/svg" xmlns:xlink="http://www.w3.org/1999/xlink" x="0px" y="0px"
	 viewBox="0 0 48 48" style="enable-background:new 0 0 48 48;" xml:space="preserve">
<g id="&#x421;&#x43B;&#x43E;&#x439;_1">
</g>
<g id="&#x421;&#x43B;&#x43E;&#x439;_2">
</g>
<g id="&#x421;&#x43B;&#x43E;&#x439;_3">
</g>
<g id="&#x421;&#x43B;&#x43E;&#x439;_4">
</g>
<g id="&#x421;&#x43B;&#x43E;&#x439;_5">
</g>
<g id="&#x421;&#x43B;&#x43E;&#x439;_6">
	<g>
		<path d="M39.5,13H24.043l-4.471-3.726C18.586,8.452,17.335,8,16.052,8H8.5C6.019,8,4,10.019,4,12.5v23C4,37.981,6.019,40,8.5,40
			h31c2.481,0,4.5-2.019,4.5-4.5v-18C44,15.019,41.981,13,39.5,13z M35,33c0,1.105-0.895,2-2,2H15c-1.105,0-2-0.895-2-2V20
			c0-1.105,0.895-2,2-2h18c1.105,0,2,0.895,2,2V33z"/>
		<path d="M31,30h-1c-0.552,0-1,0.448-1,1v1c0,0.552,0.448,1,1,1h1c0.552,0,1-0.448,1-1v-1C32,30.448,31.552,30,31,30z"/>
		<path d="M18,20h-1c-0.552,0-1,0.448-1,1v1c0,0.552,0.448,1,1,1h1c0.552,0,1-0.448,1-1v-1C19,20.448,18.552,20,18,20z"/>
		<path d="M18,30h-1c-0.552,0-1,0.448-1,1v1c0,0.552,0.448,1,1,1h1c0.552,0,1-0.448,1-1v-1C19,30.448,18.552,30,18,30z"/>
		<path d="M18,25h-1c-0.552,0-1,0.448-1,1v1c0,0.552,0.448,1,1,1h1c0.552,0,1-0.448,1-1v-1C19,25.448,18.552,25,18,25z"/>
		<path d="M31,25h-1c-0.552,0-1,0.448-1,1v1c0,0.552,0.448,1,1,1h1c0.552,0,1-0.448,1-1v-1C32,25.448,31.552,25,31,25z"/>
		<path d="M31,20h-1c-0.552,0-1,0.448-1,1v1c0,0.552,0.448,1,1,1h1c0.552,0,1-0.448,1-1v-1C32,20.448,31.552,20,31,20z"/>
	</g>
</g>
</svg>