<?xml version="1.0" encoding="iso-8859-1"?>
<!-- Generator: Adobe Illustrator 22.1.0, SVG Export Plug-In . SVG Version: 6.00 Build 0)  -->
<svg fill="#FFFFFF" version="1.1" id="Layer_1" xmlns="http://www.w3.org/2000/svg" xmlns:xlink="http://www.w3.org/1999/xlink" x="0px" y="0px"
	 viewBox="0 0 48 48" style="enable-background:new 0 0 48 48;" xml:space="preserve">
<path d="M43.998,22H14.953c-1.25,0-2.369,0.775-2.808,1.945L7.13,37.297C6.638,38.604,7.605,40,9.002,40h29.045
	c1.25,0,2.369-0.775,2.808-1.945l5.011-13.341C46.367,23.405,45.4,22,43.998,22z"/>
<path d="M4.321,36.242L5.539,33l1.077-2.868l2.72-7.241C10.21,20.563,12.468,19,14.954,19H42v-1.5c0-2.481-2.019-4.5-4.5-4.5H24.043
	l-4.471-3.726C18.586,8.452,17.335,8,16.052,8H8.5C6.019,8,4,10.019,4,12.5v23c0,0.417,0.075,0.812,0.182,1.195
	C4.223,36.543,4.265,36.391,4.321,36.242z"/>
</svg>