<?xml version="1.0" encoding="iso-8859-1"?>
<!-- Generator: Adobe Illustrator 24.3.0, SVG Export Plug-In . SVG Version: 6.00 Build 0)  -->
<svg fill="#FFFFFF" version="1.1" xmlns="http://www.w3.org/2000/svg" xmlns:xlink="http://www.w3.org/1999/xlink" x="0px" y="0px"
	 viewBox="0 0 48 48" style="enable-background:new 0 0 48 48;" xml:space="preserve">
<g id="&#x421;&#x43B;&#x43E;&#x439;_1">
</g>
<g id="&#x421;&#x43B;&#x43E;&#x439;_2">
</g>
<g id="&#x421;&#x43B;&#x43E;&#x439;_3">
</g>
<g id="&#x421;&#x43B;&#x43E;&#x439;_4">
</g>
<g id="&#x421;&#x43B;&#x43E;&#x439;_5">
</g>
<g id="&#x421;&#x43B;&#x43E;&#x439;_6">
	<path d="M24.112,39.403l-0.423-1.212l1.82-1.75c0.395-0.379,0.612-0.892,0.612-1.44s-0.218-1.061-0.613-1.441l-1.819-1.751
		l0.423-1.211c0.469-1.341,1.146-2.588,2.015-3.706l0.837-1.079l2.513,0.743c0.187,0.055,0.378,0.083,0.569,0.083
		c0.926,0,1.724-0.63,1.942-1.533l0.653-2.714l1.301-0.221C34.616,22.058,35.308,22,36,22s1.384,0.058,2.058,0.172l1.301,0.221
		l0.653,2.715c0.218,0.901,1.016,1.532,1.941,1.532c0.191,0,0.382-0.028,0.569-0.083L44,26.119V17.5c0-2.481-2.019-4.5-4.5-4.5
		H24.043l-4.471-3.726C18.586,8.452,17.335,8,16.052,8H8.5C6.019,8,4,10.019,4,12.5v23C4,37.981,6.019,40,8.5,40h15.848
		C24.268,39.802,24.183,39.606,24.112,39.403z"/>
	<path d="M45.105,32.118L46,31.257c-0.401-1.147-0.981-2.205-1.706-3.139l-1.204,0.356c-2.195,0.649-4.485-0.673-5.022-2.898
		l-0.345-1.432C37.162,24.049,36.587,24,36,24s-1.162,0.049-1.723,0.144l-0.345,1.432c-0.537,2.225-2.827,3.547-5.022,2.898
		l-1.204-0.356c-0.724,0.933-1.305,1.992-1.706,3.139l0.895,0.861c1.635,1.574,1.635,4.191,0,5.765L26,38.743
		c0.401,1.147,0.981,2.205,1.706,3.139l1.204-0.356c2.195-0.649,4.485,0.673,5.022,2.898l0.345,1.432C34.838,45.951,35.414,46,36,46
		c0.587,0,1.162-0.049,1.723-0.144l0.345-1.432c0.537-2.225,2.827-3.547,5.022-2.898l1.204,0.356
		c0.724-0.933,1.305-1.992,1.706-3.139l-0.895-0.861C43.47,36.309,43.47,33.691,45.105,32.118z M36,38c-1.657,0-3-1.343-3-3
		s1.343-3,3-3s3,1.343,3,3S37.657,38,36,38z"/>
</g>
</svg>