<?xml version="1.0" encoding="iso-8859-1"?>
<!-- Generator: Adobe Illustrator 24.3.0, SVG Export Plug-In . SVG Version: 6.00 Build 0)  -->
<svg fill="#FFFFFF" version="1.1" xmlns="http://www.w3.org/2000/svg" xmlns:xlink="http://www.w3.org/1999/xlink" x="0px" y="0px"
	 viewBox="0 0 48 48" style="enable-background:new 0 0 48 48;" xml:space="preserve">
<g id="&#x421;&#x43B;&#x43E;&#x439;_1">
</g>
<g id="&#x421;&#x43B;&#x43E;&#x439;_2">
</g>
<g id="&#x421;&#x43B;&#x43E;&#x439;_3">
</g>
<g id="&#x421;&#x43B;&#x43E;&#x439;_4">
</g>
<g id="&#x421;&#x43B;&#x43E;&#x439;_5">
</g>
<g id="&#x421;&#x43B;&#x43E;&#x439;_6">
	<path d="M24,34c0-5.514,4.486-10,10-10s10,4.486,10,10V17.5c0-2.481-2.019-4.5-4.5-4.5H24.043l-4.471-3.726
		C18.586,8.452,17.335,8,16.052,8H8.5C6.019,8,4,10.019,4,12.5v23C4,37.981,6.019,40,8.5,40h17.519C24.758,38.326,24,36.253,24,34z"
		/>
	<path d="M45.561,43.439l-4.946-4.946C41.488,37.211,42,35.665,42,34c0-4.411-3.589-8-8-8s-8,3.589-8,8s3.589,8,8,8
		c1.665,0,3.211-0.512,4.493-1.386l4.946,4.946C43.732,45.854,44.116,46,44.5,46s0.768-0.146,1.061-0.439
		C46.146,44.975,46.146,44.025,45.561,43.439z M29,34c0-2.757,2.243-5,5-5s5,2.243,5,5s-2.243,5-5,5S29,36.757,29,34z"/>
</g>
</svg>