<?xml version="1.0" encoding="iso-8859-1"?>
<!-- Generator: Adobe Illustrator 24.3.0, SVG Export Plug-In . SVG Version: 6.00 Build 0)  -->
<svg fill="#FFFFFF" version="1.1" xmlns="http://www.w3.org/2000/svg" xmlns:xlink="http://www.w3.org/1999/xlink" x="0px" y="0px"
	 viewBox="0 0 48 48" style="enable-background:new 0 0 48 48;" xml:space="preserve">
<g id="&#x421;&#x43B;&#x43E;&#x439;_1">
</g>
<g id="&#x421;&#x43B;&#x43E;&#x439;_2">
</g>
<g id="&#x421;&#x43B;&#x43E;&#x439;_3">
</g>
<g id="&#x421;&#x43B;&#x43E;&#x439;_4">
</g>
<g id="&#x421;&#x43B;&#x43E;&#x439;_5">
</g>
<g id="&#x421;&#x43B;&#x43E;&#x439;_6">
	<g>
		<path d="M23.892,31.478L24,31.586l0.108-0.108C24.071,31.482,24.038,31.5,24,31.5S23.929,31.482,23.892,31.478z"/>
		<path d="M39.5,13H24.043l-4.471-3.726C18.586,8.452,17.335,8,16.052,8H8.5C6.019,8,4,10.019,4,12.5v23C4,37.981,6.019,40,8.5,40
			h31c2.481,0,4.5-2.019,4.5-4.5v-18C44,15.019,41.981,13,39.5,13z M29.707,28.707l-5,5C24.512,33.902,24.256,34,24,34
			s-0.512-0.098-0.707-0.293l-5-5c-0.391-0.391-0.391-1.023,0-1.414s1.023-0.391,1.414,0l3.315,3.315
			C23.018,30.571,23,30.538,23,30.5V20c0-0.552,0.448-1,1-1s1,0.448,1,1v10.5c0,0.038-0.018,0.071-0.022,0.108l3.315-3.315
			c0.391-0.391,1.023-0.391,1.414,0S30.098,28.316,29.707,28.707z"/>
	</g>
</g>
</svg>