<?xml version="1.0" encoding="iso-8859-1"?>
<!-- Generator: Adobe Illustrator 22.1.0, SVG Export Plug-In . SVG Version: 6.00 Build 0)  -->
<svg fill="#FFFFFF" version="1.1" id="Layer_1" xmlns="http://www.w3.org/2000/svg" xmlns:xlink="http://www.w3.org/1999/xlink" x="0px" y="0px"
	 viewBox="0 0 48 48" style="enable-background:new 0 0 48 48;" xml:space="preserve">
<path d="M39.5,13H24.043l-4.471-3.726C18.586,8.452,17.335,8,16.052,8H8.5C6.019,8,4,10.019,4,12.5v23C4,37.981,6.019,40,8.5,40h31
	c2.481,0,4.5-2.019,4.5-4.5v-18C44,15.019,41.981,13,39.5,13z M31,25c0,0.332-0.165,0.642-0.439,0.828
	c-0.274,0.186-0.623,0.225-0.932,0.101L26,24.477V31c0,1.657-1.791,3-4,3s-4-1.343-4-3s1.791-3,4-3c0.732,0,1.41,0.158,2,0.416V20
	c0-0.332,0.165-0.642,0.439-0.828c0.275-0.185,0.625-0.224,0.932-0.101l3.743,1.497C30.26,21.027,31,22.12,31,23.354V25z"/>
</svg>