<?xml version="1.0" encoding="iso-8859-1"?>
<!-- Generator: Adobe Illustrator 25.2.3, SVG Export Plug-In . SVG Version: 6.00 Build 0)  -->
<svg fill="#FFFFFF" version="1.1" baseProfile="basic" xmlns="http://www.w3.org/2000/svg" xmlns:xlink="http://www.w3.org/1999/xlink" x="0px"
	 y="0px" viewBox="0 0 48 48" xml:space="preserve">
<g id="Layer_10">
</g>
<g id="win10">
</g>
<g id="ssm">
</g>
<g id="mat_2">
</g>
<g id="ios">
</g>
<g id="fluent">
	<path d="M43.96,41.14c0.12,0.51-0.03,1.05-0.4,1.42C43.28,42.85,42.89,43,42.5,43c-0.12,0-0.24-0.01-0.36-0.04l-6.64-1.64
		c-2.87,1.47-6.09,1.98-9.33,1.51c-3.11-0.47-5.94-1.86-8.15-3.9C18.51,38.98,19.01,39,19.5,39c0.92,0,1.85-0.07,2.77-0.21
		c8.16-1.2,14.57-7.76,15.58-15.94c0.35-2.85,0.05-5.7-0.86-8.34c3.61,2.37,6.18,6.2,6.84,10.66c0.48,3.25-0.04,6.46-1.51,9.33
		L43.96,41.14z"/>
	<path d="M33.388,22.293c-0.764,6.145-5.65,11.145-11.775,12.049c-3.258,0.481-6.334-0.174-8.914-1.611L5.5,34.5l1.77-7.195
		c-1.439-2.58-2.095-5.656-1.615-8.915c0.903-6.127,5.904-11.014,12.05-11.778C26.844,5.477,34.524,13.156,33.388,22.293z"/>
	<path style="fill:none;stroke:#000000;stroke-width:3;stroke-linejoin:round;stroke-miterlimit:10;" d="M17.706,6.612
		C11.56,7.375,6.559,12.262,5.656,18.39c-0.48,3.259,0.176,6.335,1.615,8.915L5.5,34.5l7.199-1.769
		c2.58,1.438,5.656,2.092,8.914,1.611c6.126-0.904,11.012-5.904,11.775-12.049C34.524,13.156,26.844,5.477,17.706,6.612z"/>
</g>
</svg>